<svg width="30" height="30" viewBox="0 0 30 30" fill="none" xmlns="http://www.w3.org/2000/svg">
<path d="M15 27.0209C12.2152 27.0209 9.54451 25.9223 7.57538 23.9669C5.60625 22.0114 4.5 19.3593 4.5 16.5938C4.5 13.8284 5.60625 11.1763 7.57538 9.22083C9.54451 7.26539 12.2152 6.16683 15 6.16683C17.7848 6.16683 20.4555 7.26539 22.4246 9.22083C24.3938 11.1763 25.5 13.8284 25.5 16.5938C25.5 19.3593 24.3938 22.0114 22.4246 23.9669C20.4555 25.9223 17.7848 27.0209 15 27.0209ZM15 3.18769C11.4196 3.18769 7.9858 4.60012 5.45406 7.11426C2.92232 9.6284 1.5 13.0383 1.5 16.5938C1.5 20.1494 2.92232 23.5593 5.45406 26.0734C7.9858 28.5876 11.4196 30 15 30C18.5804 30 22.0142 28.5876 24.5459 26.0734C27.0777 23.5593 28.5 20.1494 28.5 16.5938C28.5 13.0383 27.0777 9.6284 24.5459 7.11426C22.0142 4.60012 18.5804 3.18769 15 3.18769ZM15.75 9.14598H13.5V18.0834L20.625 22.3287L21.75 20.4965L15.75 16.9662V9.14598ZM8.82 2.27905L6.9 0L0 5.73486L1.935 8.0139L8.82 2.27905ZM30 5.74975L23.1 0L21.165 2.27905L28.065 8.0288L30 5.74975Z" fill="white"/>
</svg>
