<svg width="18" height="30" viewBox="0 0 18 30" fill="none" xmlns="http://www.w3.org/2000/svg">
<path d="M7.20343 15.5526C8.42785 13.3579 10.7813 12.0632 12.1488 10.1211C13.5959 8.08421 12.7849 4.27895 8.68228 4.27895C5.99491 4.27895 4.67507 6.3 4.11852 7.97368L0 6.25263C1.12901 2.88947 4.19802 0 8.66638 0C12.4033 0 14.9634 1.68947 16.2673 3.80526C17.3805 5.62105 18.0324 9.01579 16.3151 11.5421C14.4069 14.3368 12.5782 15.1895 11.5923 16.9895C11.1947 17.7158 11.0357 18.1895 11.0357 20.5263H6.44015C6.42425 19.2947 6.23343 17.2895 7.20343 15.5526ZM11.8626 26.8421C11.8626 28.5789 10.4315 30 8.68228 30C6.9331 30 5.50196 28.5789 5.50196 26.8421C5.50196 25.1053 6.9331 23.6842 8.68228 23.6842C10.4315 23.6842 11.8626 25.1053 11.8626 26.8421Z" fill="white"/>
</svg>
