<svg width="40" height="40" viewBox="0 0 40 40" fill="none" xmlns="http://www.w3.org/2000/svg">
<path d="M20 36.0278C16.287 36.0278 12.726 34.5631 10.1005 31.9558C7.475 29.3485 6 25.8123 6 22.1251C6 18.4379 7.475 14.9017 10.1005 12.2944C12.726 9.68719 16.287 8.22244 20 8.22244C23.713 8.22244 27.274 9.68719 29.8995 12.2944C32.525 14.9017 34 18.4379 34 22.1251C34 25.8123 32.525 29.3485 29.8995 31.9558C27.274 34.5631 23.713 36.0278 20 36.0278ZM20 4.25025C15.2261 4.25025 10.6477 6.13349 7.27208 9.48568C3.89642 12.8379 2 17.3844 2 22.1251C2 26.8658 3.89642 31.4124 7.27208 34.7646C10.6477 38.1168 15.2261 40 20 40C24.7739 40 29.3523 38.1168 32.7279 34.7646C36.1036 31.4124 38 26.8658 38 22.1251C38 17.3844 36.1036 12.8379 32.7279 9.48568C29.3523 6.13349 24.7739 4.25025 20 4.25025ZM11.76 3.03873L9.2 0L0 7.64647L2.58 10.6852L11.76 3.03873ZM40 7.66634L30.8 0L28.22 3.03873L37.42 10.7051L40 7.66634Z" fill="black"/>
</svg>
