<svg width="30" height="30" viewBox="0 0 30 30" fill="none" xmlns="http://www.w3.org/2000/svg">
<path d="M15 0C12.0333 0 9.13319 0.879735 6.66645 2.52796C4.19972 4.17618 2.27713 6.51886 1.14181 9.25975C0.00649929 12.0006 -0.290551 15.0166 0.288227 17.9264C0.867006 20.8361 2.29562 23.5088 4.3934 25.6066C6.49119 27.7044 9.16393 29.133 12.0736 29.7118C14.9834 30.2906 17.9994 29.9935 20.7403 28.8582C23.4811 27.7229 25.8238 25.8003 27.472 23.3335C29.1203 20.8668 30 17.9667 30 15C29.9963 11.0229 28.4148 7.20971 25.6025 4.39746C22.7903 1.58521 18.9771 0.00367741 15 0ZM15 26.6667C12.6926 26.6667 10.4369 25.9824 8.51835 24.7005C6.59978 23.4185 5.10443 21.5964 4.22141 19.4646C3.33839 17.3328 3.10735 14.9871 3.55751 12.7239C4.00767 10.4608 5.11881 8.38203 6.75043 6.75042C8.38204 5.11881 10.4608 4.00767 12.724 3.5575C14.9871 3.10734 17.3328 3.33838 19.4646 4.2214C21.5964 5.10443 23.4185 6.59977 24.7005 8.51835C25.9824 10.4369 26.6667 12.6925 26.6667 15C26.663 18.0931 25.4326 21.0584 23.2455 23.2455C21.0584 25.4326 18.0931 26.663 15 26.6667ZM20.625 11.7361L17.3611 15L20.625 18.2639C20.7804 18.4187 20.9037 18.6027 20.9878 18.8053C21.0719 19.0079 21.1152 19.2251 21.1152 19.4444C21.1152 19.6638 21.0719 19.881 20.9878 20.0836C20.9037 20.2862 20.7804 20.4702 20.625 20.625C20.3105 20.9354 19.8864 21.1095 19.4444 21.1095C19.0025 21.1095 18.5784 20.9354 18.2639 20.625L15 17.3611L11.7361 20.625C11.4216 20.9354 10.9975 21.1095 10.5556 21.1095C10.1136 21.1095 9.68952 20.9354 9.375 20.625C9.21963 20.4702 9.09634 20.2862 9.01222 20.0836C8.9281 19.881 8.8848 19.6638 8.8848 19.4444C8.8848 19.2251 8.9281 19.0079 9.01222 18.8053C9.09634 18.6027 9.21963 18.4187 9.375 18.2639L12.6389 15L9.375 11.7361C9.0619 11.423 8.886 10.9983 8.886 10.5556C8.886 10.1128 9.0619 9.6881 9.375 9.375C9.68811 9.0619 10.1128 8.886 10.5556 8.886C10.9984 8.886 11.423 9.0619 11.7361 9.375L15 12.6389L18.2639 9.375C18.577 9.0619 19.0017 8.886 19.4444 8.886C19.8872 8.886 20.3119 9.0619 20.625 9.375C20.9381 9.6881 21.114 10.1128 21.114 10.5556C21.114 10.9983 20.9381 11.423 20.625 11.7361Z" fill="#AA0C0C"/>
</svg>
