<svg width="15" height="15" viewBox="0 0 15 15" fill="none" xmlns="http://www.w3.org/2000/svg">
<path d="M0.826501 10.5111L7.73665 3.60094L11.3991 7.26335L4.48891 14.1735L4.48886 14.1736C4.27999 14.3825 3.99669 14.4999 3.70126 14.5C3.70122 14.5 3.70119 14.5 3.70115 14.5H1.61416C1.31866 14.5 1.03527 14.3826 0.826328 14.1737C0.617384 13.9647 0.5 13.6813 0.5 13.3858V11.2988C0.5 11.2988 0.5 11.2988 0.5 11.2987C0.500091 11.0033 0.617513 10.72 0.826448 10.5111L0.826501 10.5111ZM10.5114 0.82621C10.5114 0.826192 10.5114 0.826174 10.5114 0.826156C10.7204 0.617318 11.0037 0.5 11.2991 0.5C11.5945 0.5 11.8778 0.617318 12.0867 0.826156C12.0868 0.826174 12.0868 0.826192 12.0868 0.82621L14.1738 2.91321C14.3827 3.12214 14.5 3.40548 14.5 3.70091C14.5 3.99632 14.3827 4.27964 14.1738 4.48857C14.1738 4.48858 14.1738 4.4886 14.1738 4.48862L13.2474 5.41504L9.58496 1.75263L10.5114 0.82621Z" fill="#AA0C0C" stroke="black"/>
</svg>
