<!DOCTYPE svg PUBLIC "-//W3C//DTD SVG 1.1//EN" "http://www.w3.org/Graphics/SVG/1.1/DTD/svg11.dtd">
<!-- Uploaded to: SVG Repo, www.svgrepo.com, Transformed by: SVG Repo Mixer Tools -->
<svg fill="#ffffff" height="800px" width="800px" version="1.1" id="Capa_1" xmlns="http://www.w3.org/2000/svg" xmlns:xlink="http://www.w3.org/1999/xlink" viewBox="-88.2 -88.2 666.40 666.40" xml:space="preserve" stroke="#ffffff" stroke-width="23.029999999999998">
<g id="SVGRepo_bgCarrier" stroke-width="0"/>
<g id="SVGRepo_tracerCarrier" stroke-linecap="round" stroke-linejoin="round" stroke="#fcfcfc" stroke-width="59.779999999999994"> <path d="M64.333,490h58.401l33.878-137.69h122.259L245.39,490h58.401l33.878-137.69h119.92v-48.162h-108.24l29.2-117.324h79.04 v-48.162H390.23L424.108,0H365.31l-33.878,138.661H208.79L242.668,0h-58.415l-33.864,138.661H32.411v48.162h106.298l-28.818,117.324 h-77.48v48.162h65.8L64.333,490z M197.11,186.824h122.642l-29.2,117.324H168.292L197.11,186.824z"/> </g>
<g id="SVGRepo_iconCarrier"> <path d="M64.333,490h58.401l33.878-137.69h122.259L245.39,490h58.401l33.878-137.69h119.92v-48.162h-108.24l29.2-117.324h79.04 v-48.162H390.23L424.108,0H365.31l-33.878,138.661H208.79L242.668,0h-58.415l-33.864,138.661H32.411v48.162h106.298l-28.818,117.324 h-77.48v48.162h65.8L64.333,490z M197.11,186.824h122.642l-29.2,117.324H168.292L197.11,186.824z"/> </g>
</svg>