<svg width="529" height="71" viewBox="0 0 529 71" fill="none" xmlns="http://www.w3.org/2000/svg">
<path d="M22.2 20.64L32.82 41.82L31.14 20.64H45L42 57H24.42L14.34 37.2L12.36 57H4.5L1.5 20.64H22.2ZM58.5834 57.6C55.5034 57.6 52.9634 56.7 50.9634 54.9C49.0034 53.1 48.0234 50.56 48.0234 47.28C48.0234 43.96 49.1434 41.56 51.3834 40.08C53.6234 38.56 56.3234 37.8 59.4834 37.8C62.6434 37.8 65.3834 38.3 67.7034 39.3C67.1834 35.98 65.0834 34.32 61.4034 34.32C59.7234 34.32 57.6434 34.66 55.1634 35.34L53.6634 29.94C57.2634 28.46 60.9234 27.72 64.6434 27.72C75.3634 27.72 80.7234 32.28 80.7234 41.4C80.7234 44.52 80.3634 48.84 79.6434 54.36L79.3434 57H69.4434L69.0834 53.7C66.3634 56.3 62.8634 57.6 58.5834 57.6ZM63.9834 50.16C65.7834 50.16 67.3234 49.66 68.6034 48.66L68.2434 44.7C67.2434 44.02 66.1234 43.68 64.8834 43.68C63.6834 43.68 62.6834 43.98 61.8834 44.58C61.1234 45.18 60.7434 45.92 60.7434 46.8C60.7434 47.68 61.0434 48.46 61.6434 49.14C62.2434 49.82 63.0234 50.16 63.9834 50.16ZM111.84 52.8C108.84 56 104.82 57.6 99.78 57.6C94.78 57.6 90.9 56.26 88.14 53.58C85.38 50.86 84 47.04 84 42.12C84 37.2 85.48 33.58 88.44 31.26C91.4 28.9 95.1 27.72 99.54 27.72C101.42 27.72 103.22 27.9 104.94 28.26C106.7 28.62 107.98 29 108.78 29.4L109.98 29.94L108.66 36.12C107.02 35.64 105.32 35.4 103.56 35.4C101.84 35.4 100.26 35.96 98.82 37.08C97.42 38.16 96.72 39.84 96.72 42.12C96.72 47.24 98.7 49.8 102.66 49.8C103.7 49.8 104.7 49.68 105.66 49.44C106.62 49.16 107.32 48.88 107.76 48.6L108.42 48.24L111.84 52.8ZM126.975 32.46C129.095 29.3 131.715 27.72 134.835 27.72C136.315 27.72 137.675 28.08 138.915 28.8L137.475 38.64C135.875 37.52 134.075 36.96 132.075 36.96C130.155 36.96 128.855 37.76 128.175 39.36C127.775 40.36 127.515 41.32 127.395 42.24L126.255 57H115.455L113.655 28.56H125.475L126.975 32.46ZM156.626 46.32C156.586 48.64 157.406 49.8 159.086 49.8C159.566 49.8 160.146 49.58 160.826 49.14L162.086 54.96C161.846 55.16 161.506 55.42 161.066 55.74C160.666 56.02 159.766 56.4 158.366 56.88C157.006 57.36 155.586 57.6 154.106 57.6C151.386 57.6 149.166 56.68 147.446 54.84C145.726 52.96 144.806 50.58 144.686 47.7L144.146 36.36H139.526L140.246 28.56H143.846L143.606 22.68L157.826 19.8L157.406 28.56H160.886L161.606 36.36H157.046L156.626 46.32ZM175.947 57.6C172.867 57.6 170.327 56.7 168.327 54.9C166.367 53.1 165.387 50.56 165.387 47.28C165.387 43.96 166.507 41.56 168.747 40.08C170.987 38.56 173.687 37.8 176.847 37.8C180.007 37.8 182.747 38.3 185.067 39.3C184.547 35.98 182.447 34.32 178.767 34.32C177.087 34.32 175.007 34.66 172.527 35.34L171.027 29.94C174.627 28.46 178.287 27.72 182.007 27.72C192.727 27.72 198.087 32.28 198.087 41.4C198.087 44.52 197.727 48.84 197.007 54.36L196.707 57H186.807L186.447 53.7C183.727 56.3 180.227 57.6 175.947 57.6ZM181.347 50.16C183.147 50.16 184.687 49.66 185.967 48.66L185.607 44.7C184.607 44.02 183.487 43.68 182.247 43.68C181.047 43.68 180.047 43.98 179.247 44.58C178.487 45.18 178.107 45.92 178.107 46.8C178.107 47.68 178.407 48.46 179.007 49.14C179.607 49.82 180.387 50.16 181.347 50.16ZM202.683 62.76C203.323 62.08 203.743 61.4 203.943 60.72C204.183 60.04 204.303 59.4 204.303 58.8C204.303 58.24 203.723 48.32 202.563 29.04C204.843 29.96 207.383 30.42 210.183 30.42C212.543 30.42 214.783 30.08 216.903 29.4L217.863 29.04L215.823 57.24C215.583 60.56 214.503 63.2 212.583 65.16C210.703 67.12 207.943 68.1 204.303 68.1L199.863 64.68L200.643 64.32C201.363 63.96 202.043 63.44 202.683 62.76ZM210.183 27.78C208.183 27.78 206.503 27.18 205.143 25.98C203.783 24.78 203.103 23.22 203.103 21.3C203.103 19.34 203.763 17.78 205.083 16.62C206.443 15.42 208.123 14.82 210.123 14.82C212.163 14.82 213.863 15.42 215.223 16.62C216.583 17.82 217.263 19.38 217.263 21.3C217.263 23.22 216.583 24.78 215.223 25.98C213.863 27.18 212.183 27.78 210.183 27.78ZM275.953 38.82C277.793 38.82 279.253 38.26 280.333 37.14C281.413 36.02 281.953 34.66 281.953 33.06C281.953 31.42 281.433 30.2 280.393 29.4C279.393 28.56 278.093 28.14 276.493 28.14H274.093L273.073 38.82H275.953ZM279.733 46.5H272.293L271.273 57H259.573L255.973 20.64H282.733C286.933 20.64 290.333 21.72 292.933 23.88C295.573 26 296.893 29.06 296.893 33.06C296.893 35.5 296.393 37.62 295.393 39.42C294.433 41.22 293.113 42.62 291.433 43.62C288.193 45.54 284.293 46.5 279.733 46.5ZM303.008 54.06C300.128 51.66 298.688 47.86 298.688 42.66C298.688 37.46 300.128 33.68 303.008 31.32C305.928 28.92 309.808 27.72 314.648 27.72C319.488 27.72 323.348 28.92 326.228 31.32C329.148 33.68 330.608 37.46 330.608 42.66C330.608 47.86 329.148 51.66 326.228 54.06C323.348 56.42 319.488 57.6 314.648 57.6C309.808 57.6 305.928 56.42 303.008 54.06ZM312.128 35.88C311.648 37.24 311.408 39.5 311.408 42.66C311.408 45.82 311.648 48.1 312.128 49.5C312.608 50.86 313.448 51.54 314.648 51.54C315.848 51.54 316.688 50.86 317.168 49.5C317.648 48.1 317.888 45.82 317.888 42.66C317.888 39.5 317.648 37.24 317.168 35.88C316.688 34.48 315.848 33.78 314.648 33.78C313.448 33.78 312.608 34.48 312.128 35.88ZM351.069 68.1C349.109 68.1 347.189 67.8 345.309 67.2C343.429 66.64 342.049 66.08 341.169 65.52L339.849 64.62L342.489 59.22C344.209 60.06 345.809 60.48 347.289 60.48C350.009 60.48 352.009 59.62 353.289 57.9C354.569 56.18 355.209 54.2 355.209 51.96C355.209 51.56 355.189 51.16 355.149 50.76C353.269 54.52 350.189 56.4 345.909 56.4C342.149 56.4 339.149 55.26 336.909 52.98C334.709 50.7 333.609 47.08 333.609 42.12C333.609 39.36 333.989 36.98 334.749 34.98C335.549 32.98 336.589 31.48 337.869 30.48C340.229 28.64 342.849 27.72 345.729 27.72C347.729 27.72 349.429 28.2 350.829 29.16C351.989 30 352.969 30.92 353.769 31.92L353.409 28.56H367.329L366.309 51.9C365.789 62.7 360.709 68.1 351.069 68.1ZM349.569 35.82C347.209 35.82 346.029 38.02 346.029 42.42C346.029 43.22 346.089 44 346.209 44.76C346.369 45.52 346.749 46.28 347.349 47.04C347.989 47.8 348.889 48.18 350.049 48.18C351.209 48.18 352.069 47.62 352.629 46.5C353.229 45.38 353.529 44.02 353.529 42.42C353.529 38.02 352.209 35.82 349.569 35.82ZM374.668 54.06C371.788 51.66 370.348 47.86 370.348 42.66C370.348 37.46 371.788 33.68 374.668 31.32C377.588 28.92 381.468 27.72 386.308 27.72C391.148 27.72 395.008 28.92 397.888 31.32C400.808 33.68 402.268 37.46 402.268 42.66C402.268 47.86 400.808 51.66 397.888 54.06C395.008 56.42 391.148 57.6 386.308 57.6C381.468 57.6 377.588 56.42 374.668 54.06ZM383.788 35.88C383.308 37.24 383.068 39.5 383.068 42.66C383.068 45.82 383.308 48.1 383.788 49.5C384.268 50.86 385.108 51.54 386.308 51.54C387.508 51.54 388.348 50.86 388.828 49.5C389.308 48.1 389.548 45.82 389.548 42.66C389.548 39.5 389.308 37.24 388.828 35.88C388.348 34.48 387.508 33.78 386.308 33.78C385.108 33.78 384.268 34.48 383.788 35.88ZM405.27 42.12C405.27 39.36 405.65 36.98 406.41 34.98C407.21 32.98 408.25 31.48 409.53 30.48C411.89 28.64 414.51 27.72 417.39 27.72C418.83 27.72 420.15 28.02 421.35 28.62C422.59 29.18 423.45 29.76 423.93 30.36L424.65 31.2L424.17 18.06H437.85L436.23 57H427.23L426.21 53.1C423.81 56.06 420.85 57.54 417.33 57.54C413.85 57.58 410.97 56.28 408.69 53.64C406.41 51 405.27 47.16 405.27 42.12ZM421.23 35.76C418.87 35.76 417.69 38.16 417.69 42.96C417.69 43.84 417.75 44.68 417.87 45.48C417.99 46.28 418.35 47.12 418.95 48C419.55 48.88 420.43 49.32 421.59 49.32C422.75 49.32 423.63 48.68 424.23 47.4C424.87 46.08 425.19 44.6 425.19 42.96C425.19 38.16 423.87 35.76 421.23 35.76ZM455.709 29.4L456.729 29.04L454.689 57H443.349L441.429 29.04C443.709 29.96 446.129 30.42 448.689 30.42C451.289 30.42 453.629 30.08 455.709 29.4ZM449.049 27.78C447.049 27.78 445.369 27.18 444.009 25.98C442.649 24.78 441.969 23.22 441.969 21.3C441.969 19.34 442.629 17.78 443.949 16.62C445.309 15.42 446.989 14.82 448.989 14.82C451.029 14.82 452.729 15.42 454.089 16.62C455.449 17.82 456.129 19.38 456.129 21.3C456.129 23.22 455.449 24.78 454.089 25.98C452.729 27.18 451.049 27.78 449.049 27.78Z" fill="white"/>
<path d="M242.408 54.6C239.848 56.6 236.608 57.6 232.688 57.6C228.808 57.6 225.668 56.54 223.268 54.42C220.868 52.3 219.668 49.8 219.668 46.92C219.668 43.4 221.388 40.5 224.828 38.22C223.548 35.98 222.908 34.02 222.908 32.34C222.908 29.06 224.288 26.6 227.048 24.96C229.848 23.28 233.148 22.44 236.948 22.44C240.748 22.44 244.028 23.04 246.788 24.24L246.188 30.54C245.068 30.02 243.808 29.76 242.408 29.76C241.008 29.76 239.828 30.14 238.868 30.9C237.908 31.62 237.428 32.68 237.428 34.08C237.428 36.84 238.848 39.9 241.688 43.26C242.008 41.74 242.168 40.3 242.168 38.94C242.168 37.58 242.108 36.36 241.988 35.28H250.328L251.468 41.64H248.528C248.288 44.12 247.788 46.36 247.028 48.36C249.308 50.16 251.788 51.74 254.468 53.1L252.068 58.62C249.308 58.1 246.088 56.76 242.408 54.6ZM228.668 46.86C228.668 47.82 229.068 48.68 229.868 49.44C230.668 50.16 231.668 50.52 232.868 50.52C234.108 50.52 235.148 50.4 235.988 50.16C233.788 48.48 231.648 46.56 229.568 44.4C228.968 45.04 228.668 45.86 228.668 46.86Z" fill="url(#paint0_linear_3_403)"/>
<path d="M22.2 20.64L24.8818 19.2953L24.0518 17.64H22.2V20.64ZM32.82 41.82L30.1382 43.1647L35.8106 41.5828L32.82 41.82ZM31.14 20.64V17.64H27.8926L28.1494 20.8772L31.14 20.64ZM45 20.64L47.9898 20.8867L48.2577 17.64H45V20.64ZM42 57V60H44.7627L44.9898 57.2467L42 57ZM24.42 57L21.7465 58.361L22.5809 60H24.42V57ZM14.34 37.2L17.0135 35.8389L12.3727 26.7232L11.3549 36.9015L14.34 37.2ZM12.36 57V60H15.075L15.3451 57.2985L12.36 57ZM4.5 57L1.51016 57.2467L1.73733 60H4.5V57ZM1.5 20.64V17.64H-1.75772L-1.48984 20.8867L1.5 20.64ZM19.5182 21.9847L30.1382 43.1647L35.5018 40.4753L24.8818 19.2953L19.5182 21.9847ZM35.8106 41.5828L34.1306 20.4028L28.1494 20.8772L29.8294 42.0572L35.8106 41.5828ZM31.14 23.64H45V17.64H31.14V23.64ZM42.0102 20.3933L39.0102 56.7533L44.9898 57.2467L47.9898 20.8867L42.0102 20.3933ZM42 54H24.42V60H42V54ZM27.0935 55.639L17.0135 35.8389L11.6665 38.561L21.7465 58.361L27.0935 55.639ZM11.3549 36.9015L9.37489 56.7015L15.3451 57.2985L17.3251 37.4985L11.3549 36.9015ZM12.36 54H4.5V60H12.36V54ZM7.48984 56.7533L4.48984 20.3933L-1.48984 20.8867L1.51016 57.2467L7.48984 56.7533ZM1.5 23.64H22.2V17.64H1.5V23.64ZM50.9634 54.9L48.9342 57.1096L48.9453 57.1198L48.9565 57.1299L50.9634 54.9ZM51.3834 40.08L53.0372 42.583L53.0526 42.5728L53.0679 42.5624L51.3834 40.08ZM67.7034 39.3L66.516 42.055L71.5086 44.207L70.6673 38.8358L67.7034 39.3ZM55.1634 35.34L52.2729 36.1429L53.0731 39.0239L55.9567 38.2332L55.1634 35.34ZM53.6634 29.94L52.5227 27.1653L50.0603 28.1777L50.7729 30.7429L53.6634 29.94ZM79.6434 54.36L76.6686 53.972L76.6654 53.9966L76.6626 54.0213L79.6434 54.36ZM79.3434 57V60H82.0218L82.3243 57.3387L79.3434 57ZM69.4434 57L66.4611 57.3253L66.7529 60H69.4434V57ZM69.0834 53.7L72.0657 53.3747L71.4063 47.3295L67.0105 51.5314L69.0834 53.7ZM68.6034 48.66L70.4504 51.0241L71.7392 50.0172L71.5911 48.3884L68.6034 48.66ZM68.2434 44.7L71.2311 44.4284L71.1028 43.0164L69.9304 42.2192L68.2434 44.7ZM61.8834 44.58L60.0834 42.18L60.0537 42.2023L60.0245 42.2254L61.8834 44.58ZM61.6434 49.14L59.3939 51.1249V51.1249L61.6434 49.14ZM58.5834 54.6C56.13 54.6 54.3398 53.9027 52.9703 52.6701L48.9565 57.1299C51.587 59.4973 54.8769 60.6 58.5834 60.6V54.6ZM52.9927 52.6904C51.7908 51.5866 51.0234 49.9302 51.0234 47.28H45.0234C45.0234 51.1898 46.2161 54.6134 48.9342 57.1096L52.9927 52.6904ZM51.0234 47.28C51.0234 44.6958 51.8416 43.3729 53.0372 42.583L49.7297 37.577C46.4452 39.7471 45.0234 43.2242 45.0234 47.28H51.0234ZM53.0679 42.5624C54.732 41.4333 56.821 40.8 59.4834 40.8V34.8C55.8259 34.8 52.5149 35.6867 49.6989 37.5976L53.0679 42.5624ZM59.4834 40.8C62.3342 40.8 64.6524 41.2517 66.516 42.055L68.8909 36.545C66.1145 35.3483 62.9527 34.8 59.4834 34.8V40.8ZM70.6673 38.8358C70.3215 36.6282 69.3822 34.6212 67.5988 33.2115C65.8516 31.8303 63.6685 31.32 61.4034 31.32V37.32C62.8184 37.32 63.5253 37.6397 63.8781 37.9185C64.1947 38.1688 64.5653 38.6518 64.7396 39.7642L70.6673 38.8358ZM61.4034 31.32C59.3535 31.32 56.9873 31.7292 54.3701 32.4468L55.9567 38.2332C58.2996 37.5908 60.0934 37.32 61.4034 37.32V31.32ZM58.054 34.5371L56.554 29.1371L50.7729 30.7429L52.2729 36.1429L58.054 34.5371ZM54.8041 32.7147C58.0593 31.3764 61.3328 30.72 64.6434 30.72V24.72C60.5141 24.72 56.4676 25.5436 52.5227 27.1653L54.8041 32.7147ZM64.6434 30.72C69.6489 30.72 72.8434 31.7949 74.7595 33.425C76.5828 34.9761 77.7234 37.4407 77.7234 41.4H83.7234C83.7234 36.2393 82.1841 31.8639 78.6474 28.855C75.2035 25.9251 70.358 24.72 64.6434 24.72V30.72ZM77.7234 41.4C77.7234 44.3273 77.3827 48.4977 76.6686 53.972L82.6182 54.748C83.3442 49.1823 83.7234 44.7127 83.7234 41.4H77.7234ZM76.6626 54.0213L76.3626 56.6613L82.3243 57.3387L82.6243 54.6987L76.6626 54.0213ZM79.3434 54H69.4434V60H79.3434V54ZM72.4257 56.6747L72.0657 53.3747L66.1011 54.0253L66.4611 57.3253L72.4257 56.6747ZM67.0105 51.5314C64.9265 53.5235 62.2059 54.6 58.5834 54.6V60.6C63.521 60.6 67.8004 59.0765 71.1564 55.8686L67.0105 51.5314ZM63.9834 53.16C66.3762 53.16 68.5855 52.481 70.4504 51.0241L66.7565 46.2959C66.0613 46.839 65.1907 47.16 63.9834 47.16V53.16ZM71.5911 48.3884L71.2311 44.4284L65.2558 44.9716L65.6158 48.9316L71.5911 48.3884ZM69.9304 42.2192C68.4196 41.1919 66.7088 40.68 64.8834 40.68V46.68C65.538 46.68 66.0673 46.8481 66.5565 47.1808L69.9304 42.2192ZM64.8834 40.68C63.1678 40.68 61.5003 41.1174 60.0834 42.18L63.6834 46.98C63.8666 46.8426 64.199 46.68 64.8834 46.68V40.68ZM60.0245 42.2254C58.6265 43.329 57.7434 44.9014 57.7434 46.8H63.7434C63.7434 46.7974 63.7435 46.8167 63.7354 46.8514C63.7271 46.8867 63.7138 46.9231 63.6971 46.9554C63.6809 46.9871 63.6682 47.002 63.6697 47.0002C63.6719 46.9975 63.6922 46.9742 63.7424 46.9346L60.0245 42.2254ZM57.7434 46.8C57.7434 48.4351 58.3265 49.9151 59.3939 51.1249L63.893 47.1551C63.7604 47.0049 63.7434 46.9249 63.7434 46.8H57.7434ZM59.3939 51.1249C60.6002 52.4919 62.2199 53.16 63.9834 53.16V47.16C63.9208 47.16 63.8856 47.1545 63.8725 47.1519C63.8603 47.1496 63.8639 47.1491 63.8772 47.1549C63.8908 47.1609 63.9029 47.1682 63.9104 47.1737C63.9173 47.1789 63.9109 47.1755 63.893 47.1551L59.3939 51.1249ZM111.84 52.8L114.029 54.8518L115.751 53.0146L114.24 51L111.84 52.8ZM88.14 53.58L86.0342 55.7167L86.0421 55.7245L86.0501 55.7323L88.14 53.58ZM88.44 31.26L90.2906 33.6212L90.3005 33.6135L90.3102 33.6057L88.44 31.26ZM104.94 28.26L104.325 31.1964L104.339 31.1991L104.94 28.26ZM108.78 29.4L107.438 32.0833L107.493 32.1107L107.549 32.1358L108.78 29.4ZM109.98 29.94L112.914 30.5666L113.42 28.1981L111.211 27.2042L109.98 29.94ZM108.66 36.12L107.817 38.9992L110.919 39.907L111.594 36.7466L108.66 36.12ZM98.82 37.08L100.652 39.4554L100.662 39.4481L98.82 37.08ZM105.66 49.44L106.388 52.3504L106.444 52.3363L106.5 52.32L105.66 49.44ZM107.76 48.6L106.323 45.9663L106.235 46.0147L106.149 46.069L107.76 48.6ZM108.42 48.24L110.82 46.44L109.262 44.3632L106.983 45.6063L108.42 48.24ZM109.651 50.7482C107.305 53.251 104.126 54.6 99.78 54.6V60.6C105.514 60.6 110.375 58.749 114.029 54.8518L109.651 50.7482ZM99.78 54.6C95.3177 54.6 92.2772 53.4157 90.2299 51.4277L86.0501 55.7323C89.5228 59.1043 94.2423 60.6 99.78 60.6V54.6ZM90.2458 51.4433C88.2022 49.4292 87 46.4649 87 42.12H81C81 47.6151 82.5578 52.2908 86.0342 55.7167L90.2458 51.4433ZM87 42.12C87 37.814 88.2681 35.2064 90.2906 33.6212L86.5894 28.8988C82.6919 31.9536 81 36.586 81 42.12H87ZM90.3102 33.6057C92.6504 31.7399 95.6569 30.72 99.54 30.72V24.72C94.5431 24.72 90.1496 26.0601 86.5698 28.9143L90.3102 33.6057ZM99.54 30.72C101.228 30.72 102.821 30.8815 104.325 31.1964L105.555 25.3236C103.619 24.9185 101.612 24.72 99.54 24.72V30.72ZM104.339 31.1991C106.045 31.5482 107.005 31.8668 107.438 32.0833L110.122 26.7167C108.955 26.1332 107.355 25.6918 105.541 25.3209L104.339 31.1991ZM107.549 32.1358L108.749 32.6758L111.211 27.2042L110.011 26.6642L107.549 32.1358ZM107.046 29.3134L105.726 35.4934L111.594 36.7466L112.914 30.5666L107.046 29.3134ZM109.503 33.2408C107.581 32.6783 105.597 32.4 103.56 32.4V38.4C105.043 38.4 106.459 38.6017 107.817 38.9992L109.503 33.2408ZM103.56 32.4C101.131 32.4 98.9106 33.209 96.9782 34.7119L100.662 39.4481C101.609 38.711 102.549 38.4 103.56 38.4V32.4ZM96.9876 34.7047C94.6462 36.5109 93.72 39.204 93.72 42.12H99.72C99.72 40.476 100.194 39.8091 100.652 39.4553L96.9876 34.7047ZM93.72 42.12C93.72 44.9833 94.2593 47.6821 95.832 49.7154C97.5177 51.8949 99.982 52.8 102.66 52.8V46.8C101.378 46.8 100.872 46.4251 100.578 46.0446C100.171 45.5179 99.72 44.3767 99.72 42.12H93.72ZM102.66 52.8C103.933 52.8 105.178 52.6529 106.388 52.3504L104.932 46.5296C104.222 46.7071 103.467 46.8 102.66 46.8V52.8ZM106.5 52.32C107.531 52.0192 108.563 51.6449 109.371 51.131L106.149 46.069C106.15 46.0688 106.123 46.0859 106.059 46.1173C105.996 46.1483 105.908 46.1878 105.791 46.2346C105.554 46.3293 105.235 46.4389 104.82 46.56L106.5 52.32ZM109.197 51.2337L109.857 50.8737L106.983 45.6063L106.323 45.9663L109.197 51.2337ZM106.02 50.04L109.44 54.6L114.24 51L110.82 46.44L106.02 50.04ZM126.975 32.46L124.175 33.5369L126.249 38.9279L129.467 34.1314L126.975 32.46ZM138.915 28.8L141.884 29.2344L142.178 27.2252L140.422 26.2056L138.915 28.8ZM137.475 38.64L135.755 41.0977L139.74 43.8868L140.444 39.0744L137.475 38.64ZM128.175 39.36L125.414 38.1866L125.402 38.2161L125.39 38.2458L128.175 39.36ZM127.395 42.24L124.421 41.852L124.41 41.9303L124.404 42.009L127.395 42.24ZM126.255 57V60H129.033L129.247 57.231L126.255 57ZM115.455 57L112.461 57.1895L112.639 60H115.455V57ZM113.655 28.56V25.56H110.46L110.661 28.7495L113.655 28.56ZM125.475 28.56L128.276 27.4831L127.536 25.56H125.475V28.56ZM129.467 34.1314C131.169 31.5936 132.943 30.72 134.835 30.72V24.72C130.488 24.72 127.022 27.0064 124.484 30.7886L129.467 34.1314ZM134.835 30.72C135.804 30.72 136.642 30.9489 137.409 31.3944L140.422 26.2056C138.709 25.2111 136.827 24.72 134.835 24.72V30.72ZM135.947 28.3656L134.507 38.2056L140.444 39.0744L141.884 29.2344L135.947 28.3656ZM139.196 36.1823C137.079 34.7004 134.675 33.96 132.075 33.96V39.96C133.476 39.96 134.672 40.3396 135.755 41.0977L139.196 36.1823ZM132.075 33.96C130.702 33.96 129.319 34.2477 128.088 35.005C126.837 35.7752 125.963 36.8965 125.414 38.1866L130.936 40.5334C131.068 40.2235 131.184 40.1448 131.233 40.115C131.302 40.0723 131.529 39.96 132.075 39.96V33.96ZM125.39 38.2458C124.911 39.4426 124.578 40.6468 124.421 41.852L130.37 42.628C130.453 41.9932 130.64 41.2774 130.961 40.4742L125.39 38.2458ZM124.404 42.009L123.264 56.769L129.247 57.231L130.387 42.471L124.404 42.009ZM126.255 54H115.455V60H126.255V54ZM118.449 56.8105L116.649 28.3705L110.661 28.7495L112.461 57.1895L118.449 56.8105ZM113.655 31.56H125.475V25.56H113.655V31.56ZM122.675 29.6369L124.175 33.5369L129.776 31.3831L128.276 27.4831L122.675 29.6369ZM156.626 46.32L153.628 46.1936L153.627 46.2309L153.626 46.2683L156.626 46.32ZM160.826 49.14L163.758 48.5052L162.84 44.2637L159.196 46.6213L160.826 49.14ZM162.086 54.96L164.006 57.2647L165.402 56.1013L165.018 54.3252L162.086 54.96ZM161.066 55.74L162.786 58.1977L162.808 58.1822L162.83 58.1662L161.066 55.74ZM158.366 56.88L157.393 54.0422L157.38 54.0465L157.367 54.051L158.366 56.88ZM147.446 54.84L145.232 56.865L145.243 56.8769L145.254 56.8887L147.446 54.84ZM144.686 47.7L147.683 47.5751L147.683 47.5662L147.682 47.5573L144.686 47.7ZM144.146 36.36L147.142 36.2173L147.006 33.36H144.146V36.36ZM139.526 36.36L136.538 36.0842L136.236 39.36H139.526V36.36ZM140.246 28.56V25.56H137.51L137.258 28.2842L140.246 28.56ZM143.846 28.56V31.56H146.971L146.843 28.4377L143.846 28.56ZM143.606 22.68L143.01 19.7397L140.504 20.2473L140.608 22.8023L143.606 22.68ZM157.826 19.8L160.822 19.9437L161.007 16.0948L157.23 16.8597L157.826 19.8ZM157.406 28.56L154.409 28.4163L154.258 31.56H157.406V28.56ZM160.886 28.56L163.873 28.2842L163.622 25.56H160.886V28.56ZM161.606 36.36V39.36H164.895L164.593 36.0842L161.606 36.36ZM157.046 36.36V33.36H154.17L154.048 36.2336L157.046 36.36ZM153.626 46.2683C153.602 47.6962 153.815 49.3235 154.761 50.6617C155.841 52.1896 157.475 52.8 159.086 52.8V46.8C159.008 46.8 159.09 46.7869 159.25 46.8612C159.428 46.9437 159.573 47.0742 159.661 47.1983C159.734 47.3029 159.717 47.33 159.684 47.1864C159.652 47.041 159.618 46.7808 159.625 46.3717L153.626 46.2683ZM159.086 52.8C160.418 52.8 161.587 52.2204 162.456 51.6587L159.196 46.6213C159.093 46.6881 159.008 46.7367 158.943 46.7713C158.876 46.806 158.835 46.8232 158.817 46.83C158.799 46.8369 158.812 46.8302 158.855 46.8214C158.898 46.8124 158.977 46.8 159.086 46.8V52.8ZM157.894 49.7748L159.154 55.5948L165.018 54.3252L163.758 48.5052L157.894 49.7748ZM160.165 52.6553C160 52.7934 159.721 53.0087 159.301 53.3138L162.83 58.1662C163.291 57.8313 163.692 57.5266 164.006 57.2647L160.165 52.6553ZM159.345 53.2823C159.416 53.2332 159.332 53.299 158.924 53.4713C158.561 53.6244 158.057 53.8145 157.393 54.0422L159.339 59.7178C160.665 59.2631 161.98 58.7618 162.786 58.1977L159.345 53.2823ZM157.367 54.051C156.336 54.4149 155.255 54.6 154.106 54.6V60.6C155.917 60.6 157.675 60.3051 159.364 59.709L157.367 54.051ZM154.106 54.6C152.142 54.6 150.741 53.9724 149.637 52.7913L145.254 56.8887C147.59 59.3876 150.629 60.6 154.106 60.6V54.6ZM149.659 52.815C148.479 51.5246 147.778 49.8476 147.683 47.5751L141.688 47.8249C141.834 51.3124 142.973 54.3954 145.232 56.865L149.659 52.815ZM147.682 47.5573L147.142 36.2173L141.149 36.5027L141.689 47.8427L147.682 47.5573ZM144.146 33.36H139.526V39.36H144.146V33.36ZM142.513 36.6357L143.233 28.8357L137.258 28.2842L136.538 36.0842L142.513 36.6357ZM140.246 31.56H143.846V25.56H140.246V31.56ZM146.843 28.4377L146.603 22.5577L140.608 22.8023L140.848 28.6823L146.843 28.4377ZM144.201 25.6203L158.421 22.7403L157.23 16.8597L143.01 19.7397L144.201 25.6203ZM154.829 19.6563L154.409 28.4163L160.402 28.7037L160.822 19.9437L154.829 19.6563ZM157.406 31.56H160.886V25.56H157.406V31.56ZM157.898 28.8357L158.618 36.6357L164.593 36.0842L163.873 28.2842L157.898 28.8357ZM161.606 33.36H157.046V39.36H161.606V33.36ZM154.048 36.2336L153.628 46.1936L159.623 46.4464L160.043 36.4864L154.048 36.2336ZM168.327 54.9L166.298 57.1096L166.309 57.1198L166.32 57.1299L168.327 54.9ZM168.747 40.08L170.4 42.583L170.416 42.5728L170.431 42.5624L168.747 40.08ZM185.067 39.3L183.879 42.055L188.872 44.207L188.031 38.8358L185.067 39.3ZM172.527 35.34L169.636 36.1429L170.436 39.0239L173.32 38.2332L172.527 35.34ZM171.027 29.94L169.886 27.1653L167.424 28.1777L168.136 30.7429L171.027 29.94ZM197.007 54.36L194.032 53.972L194.029 53.9966L194.026 54.0213L197.007 54.36ZM196.707 57V60H199.385L199.688 57.3387L196.707 57ZM186.807 57L183.824 57.3253L184.116 60H186.807V57ZM186.447 53.7L189.429 53.3747L188.77 47.3295L184.374 51.5314L186.447 53.7ZM185.967 48.66L187.814 51.0241L189.102 50.0172L188.954 48.3884L185.967 48.66ZM185.607 44.7L188.594 44.4284L188.466 43.0164L187.294 42.2192L185.607 44.7ZM179.247 44.58L177.447 42.18L177.417 42.2023L177.388 42.2254L179.247 44.58ZM179.007 49.14L176.757 51.1249V51.1249L179.007 49.14ZM175.947 54.6C173.493 54.6 171.703 53.9027 170.334 52.6701L166.32 57.1299C168.95 59.4973 172.24 60.6 175.947 60.6V54.6ZM170.356 52.6904C169.154 51.5866 168.387 49.9302 168.387 47.28H162.387C162.387 51.1898 163.579 54.6134 166.298 57.1096L170.356 52.6904ZM168.387 47.28C168.387 44.6958 169.205 43.3729 170.4 42.583L167.093 37.577C163.809 39.7471 162.387 43.2242 162.387 47.28H168.387ZM170.431 42.5624C172.095 41.4333 174.184 40.8 176.847 40.8V34.8C173.189 34.8 169.878 35.6867 167.062 37.5976L170.431 42.5624ZM176.847 40.8C179.697 40.8 182.016 41.2517 183.879 42.055L186.254 36.545C183.478 35.3483 180.316 34.8 176.847 34.8V40.8ZM188.031 38.8358C187.685 36.6282 186.745 34.6212 184.962 33.2115C183.215 31.8303 181.032 31.32 178.767 31.32V37.32C180.182 37.32 180.889 37.6397 181.241 37.9185C181.558 38.1688 181.929 38.6518 182.103 39.7642L188.031 38.8358ZM178.767 31.32C176.717 31.32 174.351 31.7292 171.733 32.4468L173.32 38.2332C175.663 37.5908 177.457 37.32 178.767 37.32V31.32ZM175.417 34.5371L173.917 29.1371L168.136 30.7429L169.636 36.1429L175.417 34.5371ZM172.167 32.7147C175.423 31.3764 178.696 30.72 182.007 30.72V24.72C177.877 24.72 173.831 25.5436 169.886 27.1653L172.167 32.7147ZM182.007 30.72C187.012 30.72 190.207 31.7949 192.123 33.425C193.946 34.9761 195.087 37.4407 195.087 41.4H201.087C201.087 36.2393 199.547 31.8639 196.011 28.855C192.567 25.9251 187.721 24.72 182.007 24.72V30.72ZM195.087 41.4C195.087 44.3273 194.746 48.4977 194.032 53.972L199.982 54.748C200.707 49.1823 201.087 44.7127 201.087 41.4H195.087ZM194.026 54.0213L193.726 56.6613L199.688 57.3387L199.988 54.6987L194.026 54.0213ZM196.707 54H186.807V60H196.707V54ZM189.789 56.6747L189.429 53.3747L183.464 54.0253L183.824 57.3253L189.789 56.6747ZM184.374 51.5314C182.29 53.5235 179.569 54.6 175.947 54.6V60.6C180.884 60.6 185.164 59.0765 188.52 55.8686L184.374 51.5314ZM181.347 53.16C183.739 53.16 185.949 52.481 187.814 51.0241L184.12 46.2959C183.425 46.839 182.554 47.16 181.347 47.16V53.16ZM188.954 48.3884L188.594 44.4284L182.619 44.9716L182.979 48.9316L188.954 48.3884ZM187.294 42.2192C185.783 41.1919 184.072 40.68 182.247 40.68V46.68C182.901 46.68 183.431 46.8481 183.92 47.1808L187.294 42.2192ZM182.247 40.68C180.531 40.68 178.864 41.1174 177.447 42.18L181.047 46.98C181.23 46.8426 181.562 46.68 182.247 46.68V40.68ZM177.388 42.2254C175.99 43.329 175.107 44.9014 175.107 46.8H181.107C181.107 46.7974 181.107 46.8167 181.099 46.8514C181.09 46.8867 181.077 46.9231 181.06 46.9554C181.044 46.9871 181.031 47.002 181.033 47.0002C181.035 46.9975 181.055 46.9742 181.106 46.9346L177.388 42.2254ZM175.107 46.8C175.107 48.4351 175.69 49.9151 176.757 51.1249L181.256 47.1551C181.124 47.0049 181.107 46.9249 181.107 46.8H175.107ZM176.757 51.1249C177.963 52.4919 179.583 53.16 181.347 53.16V47.16C181.284 47.16 181.249 47.1545 181.236 47.1519C181.224 47.1496 181.227 47.1491 181.24 47.1549C181.254 47.1609 181.266 47.1682 181.274 47.1737C181.281 47.1789 181.274 47.1755 181.256 47.1551L176.757 51.1249ZM202.683 62.76L200.499 60.7039L202.683 62.76ZM203.943 60.72L201.114 59.7215L201.088 59.7969L201.065 59.8735L203.943 60.72ZM202.563 29.04L203.686 26.2579L199.284 24.4816L199.569 29.2202L202.563 29.04ZM216.903 29.4L217.82 32.2566L217.889 32.2345L217.957 32.209L216.903 29.4ZM217.863 29.04L220.855 29.2565L221.193 24.5873L216.81 26.231L217.863 29.04ZM215.823 57.24L212.831 57.0235L212.831 57.0237L215.823 57.24ZM212.583 65.16L210.44 63.0607L210.429 63.0719L210.418 63.0833L212.583 65.16ZM204.303 68.1L202.473 70.4767L203.282 71.1H204.303V68.1ZM199.863 64.68L198.606 61.9561L194.107 64.0327L198.033 67.0567L199.863 64.68ZM200.643 64.32L201.9 67.0439L201.943 67.0242L201.985 67.0033L200.643 64.32ZM205.143 25.98L203.158 28.2295V28.2295L205.143 25.98ZM205.083 16.62L207.064 18.8735L207.068 18.8695L205.083 16.62ZM215.223 16.62L217.208 14.3705V14.3705L215.223 16.62ZM215.223 25.98L217.208 28.2295L215.223 25.98ZM204.868 64.8161C205.732 63.8976 206.453 62.8188 206.821 61.5665L201.065 59.8735C201.034 59.9812 200.914 60.2624 200.499 60.7039L204.868 64.8161ZM206.772 61.7185C207.103 60.7806 207.303 59.8009 207.303 58.8H201.303C201.303 58.9991 201.263 59.2994 201.114 59.7215L206.772 61.7185ZM207.303 58.8C207.303 58.12 206.711 48.0331 205.558 28.8598L199.569 29.2202C200.149 38.8597 200.584 46.1577 200.873 51.1151C201.018 53.5942 201.127 55.4855 201.199 56.7908C201.235 57.444 201.262 57.9465 201.28 58.3011C201.3 58.7041 201.303 58.8247 201.303 58.8H207.303ZM201.441 31.8221C204.124 32.9046 207.052 33.42 210.183 33.42V27.42C207.715 27.42 205.563 27.0154 203.686 26.2579L201.441 31.8221ZM210.183 33.42C212.836 33.42 215.386 33.0372 217.82 32.2566L215.987 26.5434C214.18 27.1228 212.251 27.42 210.183 27.42V33.42ZM217.957 32.209L218.917 31.849L216.81 26.231L215.85 26.591L217.957 32.209ZM214.871 28.8235L212.831 57.0235L218.815 57.4565L220.855 29.2565L214.871 28.8235ZM212.831 57.0237C212.631 59.7925 211.763 61.7103 210.44 63.0607L214.726 67.2593C217.244 64.6897 218.536 61.3275 218.815 57.4563L212.831 57.0237ZM210.418 63.0833C209.277 64.2734 207.415 65.1 204.303 65.1V71.1C208.472 71.1 212.13 69.9666 214.748 67.2367L210.418 63.0833ZM206.134 65.7233L201.694 62.3033L198.033 67.0567L202.473 70.4767L206.134 65.7233ZM201.12 67.4039L201.9 67.0439L199.386 61.5961L198.606 61.9561L201.12 67.4039ZM201.985 67.0033C203.067 66.4624 204.024 65.7127 204.868 64.8161L200.499 60.7039C200.063 61.1673 199.66 61.4576 199.302 61.6367L201.985 67.0033ZM210.183 24.78C208.833 24.78 207.882 24.3959 207.128 23.7305L203.158 28.2295C205.124 29.9641 207.533 30.78 210.183 30.78V24.78ZM207.128 23.7305C206.455 23.1367 206.103 22.4164 206.103 21.3H200.103C200.103 24.0236 201.111 26.4233 203.158 28.2295L207.128 23.7305ZM206.103 21.3C206.103 20.0916 206.471 19.3944 207.064 18.8735L203.103 14.3665C201.056 16.1656 200.103 18.5884 200.103 21.3H206.103ZM207.068 18.8695C207.822 18.2041 208.773 17.82 210.123 17.82V11.82C207.473 11.82 205.064 12.6359 203.098 14.3705L207.068 18.8695ZM210.123 17.82C211.53 17.82 212.496 18.2141 213.238 18.8695L217.208 14.3705C215.231 12.6259 212.797 11.82 210.123 11.82V17.82ZM213.238 18.8695C213.911 19.4633 214.263 20.1836 214.263 21.3H220.263C220.263 18.5764 219.255 16.1767 217.208 14.3705L213.238 18.8695ZM214.263 21.3C214.263 22.4164 213.911 23.1367 213.238 23.7305L217.208 28.2295C219.255 26.4233 220.263 24.0236 220.263 21.3H214.263ZM213.238 23.7305C212.484 24.3959 211.533 24.78 210.183 24.78V30.78C212.833 30.78 215.242 29.9641 217.208 28.2295L213.238 23.7305ZM242.408 54.6L243.927 52.0128L242.168 50.9805L240.561 52.2359L242.408 54.6ZM223.268 54.42L225.254 52.1716L223.268 54.42ZM224.828 38.22L226.485 40.7206L228.826 39.1694L227.433 36.7316L224.828 38.22ZM227.048 24.96L228.58 27.5391L228.591 27.5325L227.048 24.96ZM246.788 24.24L249.774 24.5244L249.981 22.3569L247.984 21.4888L246.788 24.24ZM246.188 30.54L244.925 33.261L248.772 35.0474L249.174 30.8244L246.188 30.54ZM238.868 30.9L240.668 33.3L240.699 33.2765L240.73 33.2521L238.868 30.9ZM241.688 43.26L239.397 45.1966L243.359 49.8844L244.624 43.878L241.688 43.26ZM241.988 35.28V32.28H238.636L239.006 35.6113L241.988 35.28ZM250.328 35.28L253.281 34.7507L252.838 32.28H250.328V35.28ZM251.468 41.64V44.64H255.054L254.421 41.1107L251.468 41.64ZM248.528 41.64V38.64H245.804L245.542 41.351L248.528 41.64ZM247.028 48.36L244.224 47.2943L243.442 49.3512L245.169 50.7146L247.028 48.36ZM254.468 53.1L257.219 54.2962L258.346 51.7039L255.826 50.4248L254.468 53.1ZM252.068 58.62L251.513 61.5681L253.865 62.0113L254.819 59.8162L252.068 58.62ZM229.868 49.44L227.802 51.615L227.831 51.6428L227.861 51.6699L229.868 49.44ZM235.988 50.16L236.812 53.0446L242.558 51.4028L237.809 47.7757L235.988 50.16ZM229.568 44.4L231.729 42.3191L229.539 40.0447L227.379 42.3482L229.568 44.4ZM240.561 52.2359C238.631 53.7438 236.081 54.6 232.688 54.6V60.6C237.135 60.6 241.065 59.4562 244.255 56.9641L240.561 52.2359ZM232.688 54.6C229.377 54.6 226.995 53.7097 225.254 52.1716L221.282 56.6684C224.341 59.3703 228.239 60.6 232.688 60.6V54.6ZM225.254 52.1716C223.418 50.5498 222.668 48.8378 222.668 46.92H216.668C216.668 50.7622 218.318 54.0502 221.282 56.6684L225.254 52.1716ZM222.668 46.92C222.668 44.5916 223.716 42.5559 226.485 40.7206L223.171 35.7194C219.06 38.4441 216.668 42.2084 216.668 46.92H222.668ZM227.433 36.7316C226.285 34.7224 225.908 33.2906 225.908 32.34H219.908C219.908 34.7494 220.811 37.2376 222.223 39.7084L227.433 36.7316ZM225.908 32.34C225.908 30.0902 226.754 28.6242 228.58 27.539L225.515 22.3809C221.822 24.5758 219.908 28.0298 219.908 32.34H225.908ZM228.591 27.5325C230.853 26.1753 233.601 25.44 236.948 25.44V19.44C232.695 19.44 228.842 20.3847 225.504 22.3875L228.591 27.5325ZM236.948 25.44C240.441 25.44 243.294 25.9923 245.592 26.9912L247.984 21.4888C244.762 20.0876 241.055 19.44 236.948 19.44V25.44ZM243.801 23.9556L243.201 30.2556L249.174 30.8244L249.774 24.5244L243.801 23.9556ZM247.451 27.819C245.886 27.0921 244.186 26.76 242.408 26.76V32.76C243.43 32.76 244.25 32.9479 244.925 33.261L247.451 27.819ZM242.408 26.76C240.434 26.76 238.571 27.3092 237.006 28.5479L240.73 33.2521C241.085 32.9708 241.582 32.76 242.408 32.76V26.76ZM237.068 28.5C235.22 29.8857 234.428 31.9142 234.428 34.08H240.428C240.428 33.4458 240.596 33.3543 240.668 33.3L237.068 28.5ZM234.428 34.08C234.428 37.8641 236.355 41.5979 239.397 45.1966L243.979 41.3234C241.341 38.2021 240.428 35.8159 240.428 34.08H234.428ZM244.624 43.878C244.98 42.1829 245.168 40.5345 245.168 38.94H239.168C239.168 40.0655 239.035 41.2971 238.752 42.642L244.624 43.878ZM245.168 38.94C245.168 37.4955 245.104 36.162 244.97 34.9487L239.006 35.6113C239.112 36.558 239.168 37.6645 239.168 38.94H245.168ZM241.988 38.28H250.328V32.28H241.988V38.28ZM247.375 35.8093L248.515 42.1693L254.421 41.1107L253.281 34.7507L247.375 35.8093ZM251.468 38.64H248.528V44.64H251.468V38.64ZM245.542 41.351C245.324 43.6077 244.875 45.581 244.224 47.2943L249.832 49.4257C250.701 47.139 251.252 44.6323 251.514 41.929L245.542 41.351ZM245.169 50.7146C247.61 52.642 250.259 54.3284 253.11 55.7752L255.826 50.4248C253.317 49.1516 251.006 47.678 248.887 46.0054L245.169 50.7146ZM251.717 51.9038L249.317 57.4238L254.819 59.8162L257.219 54.2962L251.717 51.9038ZM252.623 55.6719C250.331 55.24 247.447 54.0792 243.927 52.0128L240.889 57.1872C244.729 59.4408 248.285 60.96 251.513 61.5681L252.623 55.6719ZM225.668 46.86C225.668 48.7677 226.503 50.3812 227.802 51.615L231.934 47.265C231.763 47.1027 231.706 46.9972 231.688 46.9598C231.675 46.9311 231.668 46.9084 231.668 46.86H225.668ZM227.861 51.6699C229.277 52.9438 231.019 53.52 232.868 53.52V47.52C232.317 47.52 232.059 47.3762 231.875 47.2101L227.861 51.6699ZM232.868 53.52C234.28 53.52 235.618 53.3857 236.812 53.0446L235.164 47.2754C234.678 47.4143 233.936 47.52 232.868 47.52V53.52ZM237.809 47.7757C235.739 46.1953 233.712 44.3784 231.729 42.3191L227.407 46.4809C229.584 48.7416 231.837 50.7647 234.167 52.5443L237.809 47.7757ZM227.379 42.3482C226.185 43.6227 225.668 45.2126 225.668 46.86H231.668C231.668 46.6612 231.697 46.5613 231.71 46.5257C231.721 46.4968 231.731 46.4787 231.757 46.4518L227.379 42.3482ZM280.333 37.14L278.173 35.0576V35.0576L280.333 37.14ZM280.393 29.4L278.463 31.6971L278.512 31.7386L278.564 31.7779L280.393 29.4ZM274.093 28.14V25.14H271.366L271.106 27.8548L274.093 28.14ZM273.073 38.82L270.086 38.5348L269.772 41.82H273.073V38.82ZM272.293 46.5V43.5H269.57L269.307 46.2099L272.293 46.5ZM271.273 57V60H273.995L274.259 57.2901L271.273 57ZM259.573 57L256.587 57.2956L256.855 60H259.573V57ZM255.973 20.64V17.64H252.661L252.987 20.9356L255.973 20.64ZM292.933 23.88L291.016 26.1876L291.035 26.2035L291.054 26.2191L292.933 23.88ZM295.393 39.42L292.77 37.9631L292.758 37.9855L292.746 38.0082L295.393 39.42ZM291.433 43.62L292.962 46.2009L292.967 46.1979L291.433 43.62ZM275.953 41.82C278.446 41.82 280.744 41.0353 282.492 39.2224L278.173 35.0576C277.761 35.4847 277.139 35.82 275.953 35.82V41.82ZM282.492 39.2224C284.128 37.5259 284.953 35.4123 284.953 33.06H278.953C278.953 33.9077 278.697 34.5141 278.173 35.0576L282.492 39.2224ZM284.953 33.06C284.953 30.7456 284.182 28.5302 282.222 27.0221L278.564 31.7779C278.683 31.8698 278.953 32.0944 278.953 33.06H284.953ZM282.322 27.1029C280.668 25.7131 278.634 25.14 276.493 25.14V31.14C277.552 31.14 278.118 31.4069 278.463 31.6971L282.322 27.1029ZM276.493 25.14H274.093V31.14H276.493V25.14ZM271.106 27.8548L270.086 38.5348L276.059 39.1052L277.079 28.4252L271.106 27.8548ZM273.073 41.82H275.953V35.82H273.073V41.82ZM279.733 43.5H272.293V49.5H279.733V43.5ZM269.307 46.2099L268.287 56.7099L274.259 57.2901L275.279 46.7901L269.307 46.2099ZM271.273 54H259.573V60H271.273V54ZM262.558 56.7044L258.958 20.3444L252.987 20.9356L256.587 57.2956L262.558 56.7044ZM255.973 23.64H282.733V17.64H255.973V23.64ZM282.733 23.64C286.407 23.64 289.075 24.5754 291.016 26.1876L294.85 21.5724C291.59 18.8646 287.458 17.64 282.733 17.64V23.64ZM291.054 26.2191C292.853 27.6637 293.893 29.7853 293.893 33.06H299.893C299.893 28.3347 298.292 24.3363 294.811 21.5409L291.054 26.2191ZM293.893 33.06C293.893 35.0846 293.48 36.6846 292.77 37.9631L298.015 40.8769C299.305 38.5554 299.893 35.9154 299.893 33.06H293.893ZM292.746 38.0082C292.031 39.3473 291.087 40.3345 289.898 41.0421L292.967 46.1979C295.138 44.9055 296.834 43.0927 298.04 40.8318L292.746 38.0082ZM289.903 41.0391C287.215 42.6322 283.868 43.5 279.733 43.5V49.5C284.717 49.5 289.17 48.4478 292.962 46.2009L289.903 41.0391ZM303.008 54.06L301.087 56.3647L301.104 56.3791L301.122 56.3932L303.008 54.06ZM303.008 31.32L304.909 33.6404L304.912 33.6376L303.008 31.32ZM326.228 31.32L324.307 33.6247L324.324 33.6391L324.342 33.6532L326.228 31.32ZM326.228 54.06L328.129 56.3804L328.132 56.3776L326.228 54.06ZM312.128 35.88L314.956 36.8785L314.961 36.8657L314.965 36.853L312.128 35.88ZM312.128 49.5L309.29 50.473L309.294 50.4857L309.299 50.4985L312.128 49.5ZM317.168 49.5L319.996 50.4985L320.001 50.4857L320.005 50.473L317.168 49.5ZM317.168 35.88L314.33 36.853L314.334 36.8657L314.339 36.8785L317.168 35.88ZM304.928 51.7553C302.968 50.1221 301.688 47.3312 301.688 42.66H295.688C295.688 48.3888 297.287 53.1979 301.087 56.3647L304.928 51.7553ZM301.688 42.66C301.688 37.9848 302.97 35.2297 304.909 33.6404L301.106 28.9996C297.285 32.1303 295.688 36.9352 295.688 42.66H301.688ZM304.912 33.6376C307.16 31.7903 310.304 30.72 314.647 30.72V24.72C309.311 24.72 304.695 26.0497 301.103 29.0024L304.912 33.6376ZM314.647 30.72C318.994 30.72 322.107 31.7911 324.307 33.6247L328.148 29.0153C324.588 26.0489 319.981 24.72 314.647 24.72V30.72ZM324.342 33.6532C326.313 35.2467 327.608 37.9979 327.608 42.66H333.608C333.608 36.9221 331.982 32.1132 328.113 28.9868L324.342 33.6532ZM327.608 42.66C327.608 47.3183 326.315 50.105 324.323 51.7424L328.132 56.3776C331.98 53.215 333.608 48.4017 333.608 42.66H327.608ZM324.326 51.7396C322.125 53.543 319.005 54.6 314.647 54.6V60.6C319.97 60.6 324.57 59.297 328.129 56.3804L324.326 51.7396ZM314.647 54.6C310.293 54.6 307.142 53.5439 304.893 51.7268L301.122 56.3932C304.713 59.2961 309.322 60.6 314.647 60.6V54.6ZM309.299 34.8815C308.635 36.7609 308.408 39.4671 308.408 42.66H314.408C314.408 39.5329 314.66 37.7191 314.956 36.8785L309.299 34.8815ZM308.408 42.66C308.408 45.8626 308.637 48.5705 309.29 50.473L314.965 48.527C314.658 47.6295 314.408 45.7774 314.408 42.66H308.408ZM309.299 50.4985C309.663 51.5314 310.258 52.5746 311.23 53.3617C312.243 54.1822 313.441 54.54 314.647 54.54V48.54C314.633 48.54 314.68 48.5384 314.764 48.5664C314.852 48.5958 314.937 48.6431 315.005 48.6983C315.137 48.8054 315.072 48.8286 314.956 48.5015L309.299 50.4985ZM314.647 54.54C315.854 54.54 317.052 54.1822 318.065 53.3617C319.037 52.5746 319.632 51.5314 319.996 50.4985L314.339 48.5015C314.223 48.8286 314.158 48.8054 314.29 48.6983C314.358 48.6431 314.443 48.5958 314.531 48.5664C314.616 48.5384 314.662 48.54 314.647 48.54V54.54ZM320.005 50.473C320.658 48.5705 320.888 45.8626 320.888 42.66H314.888C314.888 45.7774 314.637 47.6295 314.33 48.527L320.005 50.473ZM320.888 42.66C320.888 39.4671 320.66 36.7609 319.996 34.8815L314.339 36.8785C314.635 37.7191 314.888 39.5329 314.888 42.66H320.888ZM320.005 34.907C319.648 33.865 319.064 32.8052 318.098 32.0003C317.085 31.1563 315.876 30.78 314.647 30.78V36.78C314.653 36.78 314.598 36.7803 314.506 36.7488C314.411 36.7161 314.323 36.6651 314.257 36.6097C314.131 36.5048 314.207 36.495 314.33 36.853L320.005 34.907ZM314.647 30.78C313.419 30.78 312.21 31.1563 311.197 32.0003C310.231 32.8052 309.647 33.865 309.29 34.907L314.965 36.853C315.088 36.495 315.164 36.5048 315.038 36.6097C314.971 36.6651 314.884 36.7161 314.789 36.7488C314.697 36.7803 314.642 36.78 314.647 36.78V30.78ZM345.309 67.2L346.221 64.342L346.194 64.3332L346.166 64.3248L345.309 67.2ZM341.169 65.52L339.479 67.9987L339.519 68.0255L339.559 68.051L341.169 65.52ZM339.849 64.62L337.154 63.3024L336.014 65.6356L338.159 67.0987L339.849 64.62ZM342.489 59.22L343.806 56.5243L341.111 55.2083L339.794 57.9024L342.489 59.22ZM355.149 50.76L358.134 50.4615L357.103 40.1449L352.466 49.4184L355.149 50.76ZM336.909 52.98L334.751 55.0631L334.76 55.0728L334.769 55.0825L336.909 52.98ZM334.749 34.98L331.964 33.8658L331.954 33.89L331.945 33.9143L334.749 34.98ZM337.869 30.48L336.025 28.1141L336.022 28.1159L337.869 30.48ZM350.829 29.16L352.589 26.7302L352.558 26.7076L352.526 26.6858L350.829 29.16ZM353.769 31.92L351.427 33.7941L357.847 41.8197L356.752 31.6004L353.769 31.92ZM353.409 28.56V25.56H350.071L350.426 28.8796L353.409 28.56ZM367.329 28.56L370.327 28.691L370.463 25.56H367.329V28.56ZM366.309 51.9L369.306 52.0443L369.307 52.031L366.309 51.9ZM346.209 44.76L343.246 45.2279L343.258 45.3033L343.274 45.378L346.209 44.76ZM347.349 47.04L344.995 48.8989L345.024 48.9361L345.055 48.9724L347.349 47.04ZM352.629 46.5L349.985 45.0833L349.965 45.1206L349.946 45.1584L352.629 46.5ZM351.069 65.1C349.421 65.1 347.809 64.8486 346.221 64.342L344.397 70.058C346.57 70.7514 348.798 71.1 351.069 71.1V65.1ZM346.166 64.3248C344.362 63.7875 343.303 63.3217 342.78 62.989L339.559 68.051C340.796 68.8383 342.497 69.4925 344.453 70.0752L346.166 64.3248ZM342.859 63.0413L341.539 62.1413L338.159 67.0987L339.479 67.9987L342.859 63.0413ZM342.545 65.9376L345.185 60.5376L339.794 57.9024L337.154 63.3024L342.545 65.9376ZM341.173 61.9157C343.187 62.8993 345.24 63.48 347.289 63.48V57.48C346.379 57.48 345.232 57.2207 343.806 56.5243L341.173 61.9157ZM347.289 63.48C350.676 63.48 353.701 62.3723 355.696 59.691L350.883 56.109C350.318 56.8677 349.343 57.48 347.289 57.48V63.48ZM355.696 59.691C357.379 57.4291 358.209 54.8144 358.209 51.96H352.209C352.209 53.5856 351.759 54.9309 350.883 56.109L355.696 59.691ZM358.209 51.96C358.209 51.4598 358.184 50.9602 358.134 50.4615L352.164 51.0585C352.194 51.3598 352.209 51.6602 352.209 51.96H358.209ZM352.466 49.4184C351.736 50.8795 350.851 51.8282 349.866 52.4293C348.878 53.0324 347.602 53.4 345.909 53.4V59.4C348.497 59.4 350.9 58.8276 352.992 57.5507C355.087 56.2718 356.683 54.4005 357.833 52.1016L352.466 49.4184ZM345.909 53.4C342.801 53.4 340.626 52.4826 339.049 50.8775L334.769 55.0825C337.673 58.0374 341.498 59.4 345.909 59.4V53.4ZM339.068 50.8969C337.644 49.421 336.609 46.7274 336.609 42.12H330.609C330.609 47.4326 331.775 51.979 334.751 55.0631L339.068 50.8969ZM336.609 42.12C336.609 39.6236 336.955 37.6225 337.554 36.0457L331.945 33.9143C331.024 36.3375 330.609 39.0964 330.609 42.12H336.609ZM337.535 36.0942C338.2 34.4308 338.969 33.428 339.716 32.8441L336.022 28.1159C334.21 29.532 332.899 31.5292 331.964 33.8658L337.535 36.0942ZM339.714 32.8459C341.569 31.3995 343.545 30.72 345.729 30.72V24.72C342.153 24.72 338.89 25.8805 336.025 28.1141L339.714 32.8459ZM345.729 30.72C347.234 30.72 348.316 31.0743 349.133 31.6342L352.526 26.6858C350.543 25.3257 348.225 24.72 345.729 24.72V30.72ZM349.07 31.5898C350.037 32.2901 350.814 33.0279 351.427 33.7941L356.112 30.0459C355.125 28.8121 353.942 27.7099 352.589 26.7302L349.07 31.5898ZM356.752 31.6004L356.392 28.2404L350.426 28.8796L350.786 32.2396L356.752 31.6004ZM353.409 31.56H367.329V25.56H353.409V31.56ZM364.332 28.429L363.312 51.769L369.307 52.031L370.327 28.691L364.332 28.429ZM363.313 51.7557C363.072 56.7618 361.793 60.0079 359.924 61.9944C358.108 63.9246 355.323 65.1 351.069 65.1V71.1C356.455 71.1 361.03 69.5754 364.294 66.1056C367.506 62.6922 369.027 57.8382 369.306 52.0443L363.313 51.7557ZM349.569 32.82C348.496 32.82 347.416 33.0763 346.437 33.6845C345.468 34.287 344.765 35.1308 344.271 36.052C343.331 37.8048 343.029 40.0498 343.029 42.42H349.029C349.029 40.3902 349.318 39.3352 349.558 38.888C349.654 38.7092 349.689 38.728 349.604 38.7805C349.511 38.8387 349.463 38.82 349.569 38.82V32.82ZM343.029 42.42C343.029 43.3705 343.101 44.3071 343.246 45.2279L349.173 44.2921C349.078 43.6929 349.029 43.0695 349.029 42.42H343.029ZM343.274 45.378C343.55 46.6888 344.177 47.8633 344.995 48.8989L349.704 45.1811C349.322 44.6967 349.189 44.3512 349.145 44.142L343.274 45.378ZM345.055 48.9724C346.363 50.5259 348.169 51.18 350.049 51.18V45.18C349.796 45.18 349.69 45.139 349.671 45.1313C349.661 45.127 349.66 45.1256 349.663 45.1275C349.665 45.1293 349.659 45.1253 349.644 45.1076L345.055 48.9724ZM350.049 51.18C351.133 51.18 352.223 50.9112 353.201 50.274C354.167 49.6453 354.847 48.7738 355.313 47.8416L349.946 45.1584C349.898 45.254 349.866 45.2935 349.862 45.2984C349.86 45.3011 349.88 45.2766 349.927 45.246C349.95 45.2315 349.974 45.2183 349.999 45.2072C350.023 45.1961 350.045 45.1887 350.062 45.184C350.096 45.1744 350.097 45.18 350.049 45.18V51.18ZM355.274 47.9167C356.16 46.2623 356.529 44.3888 356.529 42.42H350.529C350.529 43.6512 350.299 44.4977 349.985 45.0833L355.274 47.9167ZM356.529 42.42C356.529 40.0179 356.187 37.7176 355.112 35.9265C353.891 33.8912 351.906 32.82 349.569 32.82V38.82C349.691 38.82 349.765 38.8326 349.803 38.8415C349.821 38.846 349.833 38.85 349.838 38.8521C349.841 38.8532 349.843 38.8539 349.844 38.8544C349.844 38.8546 349.845 38.8547 349.845 38.8548C349.845 38.8549 349.845 38.855 349.845 38.855C349.845 38.855 349.845 38.855 349.845 38.8549C349.845 38.8549 349.845 38.8549 349.845 38.8549C349.845 38.8549 349.845 38.855 349.845 38.8551C349.845 38.8552 349.846 38.8555 349.846 38.8558C349.848 38.8569 349.853 38.8609 349.861 38.8694C349.878 38.886 349.916 38.9282 349.967 39.0135C350.212 39.4224 350.529 40.4221 350.529 42.42H356.529ZM374.668 54.06L372.747 56.3647L372.764 56.3791L372.782 56.3932L374.668 54.06ZM374.668 31.32L376.569 33.6404L376.573 33.6376L374.668 31.32ZM397.888 31.32L395.967 33.6247L395.984 33.6391L396.002 33.6532L397.888 31.32ZM397.888 54.06L399.789 56.3804L399.793 56.3776L397.888 54.06ZM383.788 35.88L386.617 36.8785L386.621 36.8657L386.625 36.853L383.788 35.88ZM383.788 49.5L380.95 50.473L380.954 50.4857L380.959 50.4985L383.788 49.5ZM388.828 49.5L391.657 50.4985L391.661 50.4857L391.665 50.473L388.828 49.5ZM388.828 35.88L385.99 36.853L385.994 36.8657L385.999 36.8785L388.828 35.88ZM376.588 51.7553C374.628 50.1221 373.348 47.3312 373.348 42.66H367.348C367.348 48.3888 368.947 53.1979 372.747 56.3647L376.588 51.7553ZM373.348 42.66C373.348 37.9848 374.63 35.2297 376.569 33.6404L372.766 28.9996C368.946 32.1303 367.348 36.9352 367.348 42.66H373.348ZM376.573 33.6376C378.82 31.7903 381.964 30.72 386.308 30.72V24.72C380.971 24.72 376.355 26.0497 372.763 29.0024L376.573 33.6376ZM386.308 30.72C390.654 30.72 393.767 31.7911 395.967 33.6247L399.808 29.0153C396.248 26.0489 391.642 24.72 386.308 24.72V30.72ZM396.002 33.6532C397.974 35.2467 399.268 37.9979 399.268 42.66H405.268C405.268 36.9221 403.642 32.1132 399.773 28.9868L396.002 33.6532ZM399.268 42.66C399.268 47.3183 397.975 50.105 395.983 51.7424L399.793 56.3776C403.64 53.215 405.268 48.4017 405.268 42.66H399.268ZM395.986 51.7396C393.785 53.543 390.665 54.6 386.308 54.6V60.6C391.63 60.6 396.23 59.297 399.789 56.3804L395.986 51.7396ZM386.308 54.6C381.953 54.6 378.802 53.5439 376.553 51.7268L372.782 56.3932C376.374 59.2961 380.983 60.6 386.308 60.6V54.6ZM380.959 34.8815C380.295 36.7609 380.068 39.4671 380.068 42.66H386.068C386.068 39.5329 386.32 37.7191 386.617 36.8785L380.959 34.8815ZM380.068 42.66C380.068 45.8626 380.298 48.5705 380.95 50.473L386.625 48.527C386.318 47.6295 386.068 45.7774 386.068 42.66H380.068ZM380.959 50.4985C381.323 51.5314 381.918 52.5746 382.89 53.3617C383.904 54.1822 385.101 54.54 386.308 54.54V48.54C386.293 48.54 386.34 48.5384 386.424 48.5664C386.512 48.5958 386.597 48.6431 386.665 48.6983C386.798 48.8054 386.732 48.8286 386.617 48.5015L380.959 50.4985ZM386.308 54.54C387.514 54.54 388.712 54.1822 389.725 53.3617C390.698 52.5746 391.292 51.5314 391.657 50.4985L385.999 48.5015C385.883 48.8286 385.818 48.8054 385.95 48.6983C386.018 48.6431 386.103 48.5958 386.191 48.5664C386.276 48.5384 386.322 48.54 386.308 48.54V54.54ZM391.665 50.473C392.318 48.5705 392.548 45.8626 392.548 42.66H386.548C386.548 45.7774 386.298 47.6295 385.99 48.527L391.665 50.473ZM392.548 42.66C392.548 39.4671 392.32 36.7609 391.657 34.8815L385.999 36.8785C386.295 37.7191 386.548 39.5329 386.548 42.66H392.548ZM391.665 34.907C391.308 33.865 390.724 32.8052 389.758 32.0003C388.745 31.1563 387.536 30.78 386.308 30.78V36.78C386.313 36.78 386.258 36.7803 386.166 36.7488C386.071 36.7161 385.984 36.6651 385.917 36.6097C385.791 36.5048 385.867 36.495 385.99 36.853L391.665 34.907ZM386.308 30.78C385.079 30.78 383.87 31.1563 382.857 32.0003C381.891 32.8052 381.307 33.865 380.95 34.907L386.625 36.853C386.748 36.495 386.824 36.5048 386.698 36.6097C386.632 36.6651 386.544 36.7161 386.449 36.7488C386.357 36.7803 386.302 36.78 386.308 36.78V30.78ZM406.41 34.98L403.624 33.8658L403.614 33.89L403.605 33.9143L406.41 34.98ZM409.53 30.48L407.685 28.1141L407.683 28.1159L409.53 30.48ZM421.35 28.62L420.008 31.3033L420.061 31.3298L420.115 31.3541L421.35 28.62ZM423.93 30.36L421.587 32.2341L421.619 32.2738L421.652 32.3124L423.93 30.36ZM424.65 31.2L422.372 33.1524L427.961 39.6732L427.648 31.0905L424.65 31.2ZM424.17 18.06V15.06H421.058L421.172 18.1695L424.17 18.06ZM437.85 18.06L440.847 18.1847L440.977 15.06H437.85V18.06ZM436.23 57V60H439.107L439.227 57.1247L436.23 57ZM427.23 57L424.327 57.7591L424.913 60H427.23V57ZM426.21 53.1L429.112 52.3409L427.612 46.6067L423.879 51.2106L426.21 53.1ZM417.33 57.54V54.54H417.312L417.295 54.5402L417.33 57.54ZM408.69 53.64L406.419 55.6009L408.69 53.64ZM417.87 45.48L420.836 45.035V45.035L417.87 45.48ZM418.95 48L421.428 46.31V46.31L418.95 48ZM424.23 47.4L421.53 46.0912L421.522 46.1089L421.513 46.1267L424.23 47.4ZM408.27 42.12C408.27 39.6236 408.615 37.6225 409.214 36.0457L403.605 33.9143C402.684 36.3375 402.27 39.0964 402.27 42.12H408.27ZM409.195 36.0942C409.86 34.4308 410.629 33.428 411.376 32.8441L407.683 28.1159C405.87 29.532 404.559 31.5292 403.624 33.8658L409.195 36.0942ZM411.374 32.8459C413.229 31.3995 415.205 30.72 417.39 30.72V24.72C413.814 24.72 410.55 25.8805 407.685 28.1141L411.374 32.8459ZM417.39 30.72C418.399 30.72 419.255 30.9266 420.008 31.3033L422.691 25.9367C421.044 25.1134 419.26 24.72 417.39 24.72V30.72ZM420.115 31.3541C420.625 31.5846 420.993 31.7908 421.247 31.9622C421.508 32.1378 421.59 32.2373 421.587 32.2341L426.272 28.4859C425.348 27.3312 423.971 26.5123 422.584 25.8859L420.115 31.3541ZM421.652 32.3124L422.372 33.1524L426.927 29.2476L426.207 28.4076L421.652 32.3124ZM427.648 31.0905L427.168 17.9505L421.172 18.1695L421.652 31.3095L427.648 31.0905ZM424.17 21.06H437.85V15.06H424.17V21.06ZM434.852 17.9353L433.232 56.8753L439.227 57.1247L440.847 18.1847L434.852 17.9353ZM436.23 54H427.23V60H436.23V54ZM430.132 56.2409L429.112 52.3409L423.307 53.8591L424.327 57.7591L430.132 56.2409ZM423.879 51.2106C421.995 53.5344 419.863 54.54 417.33 54.54V60.54C421.836 60.54 425.624 58.5856 428.54 54.9894L423.879 51.2106ZM417.295 54.5402C414.701 54.57 412.664 53.652 410.96 51.6791L406.419 55.6009C409.275 58.908 412.998 60.59 417.364 60.5398L417.295 54.5402ZM410.96 51.6791C409.322 49.7824 408.27 46.7545 408.27 42.12H402.27C402.27 47.5655 403.497 52.2176 406.419 55.6009L410.96 51.6791ZM421.23 32.76C420.104 32.76 418.988 33.0554 417.997 33.7269C417.028 34.3839 416.35 35.2844 415.882 36.2363C414.987 38.0568 414.69 40.4105 414.69 42.96H420.69C420.69 40.7095 420.982 39.4632 421.267 38.8837C421.389 38.6356 421.448 38.6361 421.364 38.6931C421.259 38.7646 421.175 38.76 421.23 38.76V32.76ZM414.69 42.96C414.69 43.9761 414.759 44.9655 414.903 45.925L420.836 45.035C420.74 44.3945 420.69 43.7039 420.69 42.96H414.69ZM414.903 45.925C415.107 47.2895 415.694 48.5501 416.471 49.69L421.428 46.31C421.005 45.6899 420.872 45.2705 420.836 45.035L414.903 45.925ZM416.471 49.69C417.686 51.4721 419.542 52.32 421.59 52.32V46.32C421.489 46.32 421.43 46.3104 421.405 46.3049C421.381 46.2998 421.383 46.2976 421.401 46.3067C421.42 46.3162 421.438 46.3286 421.449 46.3386C421.459 46.3478 421.451 46.3429 421.428 46.31L416.471 49.69ZM421.59 52.32C422.759 52.32 423.896 51.9844 424.884 51.2662C425.838 50.5724 426.493 49.6385 426.946 48.6733L421.513 46.1267C421.366 46.4415 421.281 46.4676 421.355 46.4138C421.393 46.3858 421.448 46.3568 421.509 46.3376C421.568 46.319 421.601 46.32 421.59 46.32V52.32ZM426.929 48.7088C427.789 46.935 428.19 44.9994 428.19 42.96H422.19C422.19 44.2006 421.95 45.225 421.53 46.0912L426.929 48.7088ZM428.19 42.96C428.19 40.3833 427.852 37.976 426.828 36.1142C426.291 35.1381 425.538 34.2632 424.517 33.6444C423.49 33.0221 422.359 32.76 421.23 32.76V38.76C421.42 38.76 421.444 38.7979 421.407 38.7756C421.376 38.7568 421.448 38.7819 421.571 39.0058C421.867 39.544 422.19 40.7367 422.19 42.96H428.19ZM455.709 29.4L456.641 32.2515L456.674 32.2406L456.707 32.229L455.709 29.4ZM456.729 29.04L459.721 29.2583L460.055 24.6848L455.73 26.211L456.729 29.04ZM454.689 57V60H457.478L457.681 57.2183L454.689 57ZM443.349 57L440.356 57.2055L440.548 60H443.349V57ZM441.429 29.04L442.551 26.2579L438.108 24.4648L438.436 29.2455L441.429 29.04ZM444.009 25.98L442.024 28.2295V28.2295L444.009 25.98ZM443.949 16.62L445.929 18.8735L445.934 18.8695L443.949 16.62ZM454.089 16.62L456.074 14.3705V14.3705L454.089 16.62ZM454.089 25.98L456.074 28.2295L454.089 25.98ZM456.707 32.229L457.727 31.869L455.73 26.211L454.71 26.571L456.707 32.229ZM453.737 28.8217L451.697 56.7817L457.681 57.2183L459.721 29.2583L453.737 28.8217ZM454.689 54H443.349V60H454.689V54ZM446.342 56.7945L444.422 28.8345L438.436 29.2455L440.356 57.2055L446.342 56.7945ZM440.306 31.8221C442.958 32.8919 445.76 33.42 448.689 33.42V27.42C446.497 27.42 444.46 27.0281 442.551 26.2579L440.306 31.8221ZM448.689 33.42C451.548 33.42 454.21 33.0464 456.641 32.2515L454.777 26.5485C453.048 27.1136 451.03 27.42 448.689 27.42V33.42ZM449.049 24.78C447.699 24.78 446.748 24.3959 445.994 23.7305L442.024 28.2295C443.99 29.9641 446.399 30.78 449.049 30.78V24.78ZM445.994 23.7305C445.321 23.1367 444.969 22.4164 444.969 21.3H438.969C438.969 24.0236 439.977 26.4233 442.024 28.2295L445.994 23.7305ZM444.969 21.3C444.969 20.0916 445.337 19.3944 445.929 18.8735L441.969 14.3665C439.921 16.1656 438.969 18.5884 438.969 21.3H444.969ZM445.934 18.8695C446.688 18.2041 447.639 17.82 448.989 17.82V11.82C446.339 11.82 443.93 12.6359 441.964 14.3705L445.934 18.8695ZM448.989 17.82C450.396 17.82 451.361 18.2141 452.104 18.8695L456.074 14.3705C454.097 12.6259 451.662 11.82 448.989 11.82V17.82ZM452.104 18.8695C452.777 19.4633 453.129 20.1836 453.129 21.3H459.129C459.129 18.5764 458.121 16.1767 456.074 14.3705L452.104 18.8695ZM453.129 21.3C453.129 22.4164 452.777 23.1367 452.104 23.7305L456.074 28.2295C458.121 26.4233 459.129 24.0236 459.129 21.3H453.129ZM452.104 23.7305C451.35 24.3959 450.399 24.78 449.049 24.78V30.78C451.699 30.78 454.108 29.9641 456.074 28.2295L452.104 23.7305Z" fill="black"/>
<path d="M514.196 1.5C512.882 1.5 511.622 2.02201 510.692 2.95123L506.633 7.01051L521.989 22.3673L526.049 18.308C526.978 17.3785 527.5 16.118 527.5 14.8037C527.5 13.4894 526.978 12.229 526.049 11.2995L526.049 11.2993M514.196 1.5L527.11 10.2388L526.049 11.2993M514.196 1.5C515.511 1.5 516.771 2.02195 517.701 2.95107L514.196 1.5ZM526.049 11.2993L517.701 2.95123L526.049 11.2993ZM471.952 41.6908L499.947 13.6967L515.303 29.0534L487.309 57.0475L487.309 57.0477C486.38 57.9772 485.119 58.4996 483.805 58.5C483.805 58.5 483.805 58.5 483.805 58.5H475.457C474.142 58.5 472.881 57.9778 471.952 57.0482C471.022 56.1187 470.5 54.858 470.5 53.5434V45.1953C470.5 45.1952 470.5 45.1951 470.5 45.195C470.5 43.8806 471.023 42.6202 471.952 41.691L471.952 41.6908Z" fill="#AA0C0C" stroke="black" stroke-width="3"/>
<defs>
<linearGradient id="paint0_linear_3_403" x1="229.5" y1="8" x2="229.5" y2="71" gradientUnits="userSpaceOnUse">
<stop stop-color="#AA0C0C"/>
<stop offset="1" stop-color="#880909"/>
</linearGradient>
</defs>
</svg>
