<svg width="356" height="46" viewBox="0 0 356 46" fill="none" xmlns="http://www.w3.org/2000/svg">
<path d="M14.8 12.76L17.4818 11.4153L16.6518 9.76H14.8V12.76ZM21.88 26.88L19.1982 28.2247L24.8706 26.6428L21.88 26.88ZM20.76 12.76V9.76H17.5126L17.7694 12.9972L20.76 12.76ZM30 12.76L32.9898 13.0067L33.2577 9.76H30V12.76ZM28 37V40H30.7627L30.9898 37.2467L28 37ZM16.28 37L13.6065 38.361L14.4409 40H16.28V37ZM9.56 23.8L12.2335 22.4389L7.59272 13.3232L6.57489 23.5015L9.56 23.8ZM8.24 37V40H10.955L11.2251 37.2985L8.24 37ZM3 37L0.0101597 37.2467L0.237331 40H3V37ZM1 12.76V9.76H-2.25772L-1.98984 13.0067L1 12.76ZM12.1182 14.1047L19.1982 28.2247L24.5618 25.5353L17.4818 11.4153L12.1182 14.1047ZM24.8706 26.6428L23.7506 12.5228L17.7694 12.9972L18.8894 27.1172L24.8706 26.6428ZM20.76 15.76H30V9.76H20.76V15.76ZM27.0102 12.5133L25.0102 36.7533L30.9898 37.2467L32.9898 13.0067L27.0102 12.5133ZM28 34H16.28V40H28V34ZM18.9535 35.639L12.2335 22.4389L6.88651 25.161L13.6065 38.361L18.9535 35.639ZM6.57489 23.5015L5.25489 36.7015L11.2251 37.2985L12.5451 24.0985L6.57489 23.5015ZM8.24 34H3V40H8.24V34ZM5.98984 36.7533L3.98984 12.5133L-1.98984 13.0067L0.0101597 37.2467L5.98984 36.7533ZM1 15.76H14.8V9.76H1V15.76ZM33.9756 35.6L31.9464 37.8096L31.9575 37.8198L31.9687 37.8299L33.9756 35.6ZM34.2556 25.72L35.9094 28.223L35.9248 28.2128L35.9401 28.2024L34.2556 25.72ZM45.1356 25.2L43.9481 27.955L48.9408 30.107L48.0995 24.7358L45.1356 25.2ZM36.7756 22.56L33.8851 23.3629L34.6853 26.2439L37.5689 25.4532L36.7756 22.56ZM35.7756 18.96L34.6349 16.1853L32.1725 17.1977L32.8851 19.7629L35.7756 18.96ZM53.0956 35.24L50.1208 34.852L50.1176 34.8766L50.1148 34.9013L53.0956 35.24ZM52.8956 37V40H55.574L55.8764 37.3387L52.8956 37ZM46.2956 37L43.3133 37.3253L43.6051 40H46.2956V37ZM46.0556 34.8L49.0379 34.4747L48.3785 28.4295L43.9827 32.6314L46.0556 34.8ZM45.7356 31.44L47.5826 33.8041L48.8714 32.7972L48.7233 31.1684L45.7356 31.44ZM45.4956 28.8L48.4833 28.5284L48.3549 27.1164L47.1826 26.3192L45.4956 28.8ZM41.2556 28.72L39.4556 26.32L39.4259 26.3423L39.3967 26.3654L41.2556 28.72ZM41.0956 31.76L38.8461 33.7449V33.7449L41.0956 31.76ZM39.0556 34.4C37.6288 34.4 36.6854 34.0027 35.9825 33.3701L31.9687 37.8299C33.9326 39.5973 36.3758 40.4 39.0556 40.4V34.4ZM36.0048 33.3904C35.4563 32.8866 35.0156 32.0769 35.0156 30.52H29.0156C29.0156 33.3365 29.8816 35.9134 31.9464 37.8096L36.0048 33.3904ZM35.0156 30.52C35.0156 29.0425 35.4605 28.5196 35.9094 28.223L32.6019 23.217C30.0641 24.8937 29.0156 27.5709 29.0156 30.52H35.0156ZM35.9401 28.2024C36.8575 27.5799 38.0465 27.2 39.6556 27.2V21.2C37.0514 21.2 34.6404 21.8334 32.5711 23.2376L35.9401 28.2024ZM39.6556 27.2C41.453 27.2 42.8579 27.485 43.9481 27.955L46.3231 22.445C44.32 21.5816 42.0716 21.2 39.6556 21.2V27.2ZM48.0995 24.7358C47.8404 23.0815 47.1194 21.4896 45.686 20.3565C44.2887 19.252 42.5874 18.88 40.9356 18.88V24.88C41.7372 24.88 41.9625 25.0613 41.9652 25.0635C41.9697 25.0671 41.9898 25.0809 42.0231 25.1443C42.0614 25.2171 42.1265 25.3751 42.1718 25.6642L48.0995 24.7358ZM40.9356 18.88C39.4457 18.88 37.7728 19.1759 35.9823 19.6668L37.5689 25.4532C39.0851 25.0375 40.1856 24.88 40.9356 24.88V18.88ZM39.6662 21.7571L38.6662 18.1571L32.8851 19.7629L33.8851 23.3629L39.6662 21.7571ZM36.9163 21.7347C38.9715 20.8898 41.0249 20.48 43.0956 20.48V14.48C40.2063 14.48 37.3798 15.0569 34.6349 16.1853L36.9163 21.7347ZM43.0956 20.48C46.3144 20.48 48.1689 21.1749 49.1917 22.045C50.1216 22.8361 50.8156 24.1607 50.8156 26.6H56.8156C56.8156 22.9593 55.723 19.7239 53.0796 17.475C50.529 15.3051 47.0235 14.48 43.0956 14.48V20.48ZM50.8156 26.6C50.8156 28.4873 50.5949 31.2177 50.1208 34.852L56.0704 35.628C56.5564 31.9023 56.8156 28.8727 56.8156 26.6H50.8156ZM50.1148 34.9013L49.9148 36.6613L55.8764 37.3387L56.0764 35.5787L50.1148 34.9013ZM52.8956 34H46.2956V40H52.8956V34ZM49.2779 36.6747L49.0379 34.4747L43.0733 35.1253L43.3133 37.3253L49.2779 36.6747ZM43.9827 32.6314C42.8053 33.7568 41.2514 34.4 39.0556 34.4V40.4C42.5665 40.4 45.6793 39.3099 48.1286 36.9686L43.9827 32.6314ZM42.6556 35.44C44.4483 35.44 46.1444 34.9276 47.5826 33.8041L43.8887 29.0759C43.6202 29.2857 43.2629 29.44 42.6556 29.44V35.44ZM48.7233 31.1684L48.4833 28.5284L42.5079 29.0716L42.7479 31.7116L48.7233 31.1684ZM47.1826 26.3192C46.0051 25.5185 44.6677 25.12 43.2556 25.12V31.12C43.4969 31.12 43.6528 31.1748 43.8087 31.2808L47.1826 26.3192ZM43.2556 25.12C41.94 25.12 40.6058 25.4574 39.4556 26.32L43.0556 31.12C43.0276 31.141 43.0073 31.1466 43.0177 31.1435C43.0332 31.1388 43.1049 31.12 43.2556 31.12V25.12ZM39.3967 26.3654C38.2521 27.269 37.4956 28.5948 37.4956 30.2H43.4956C43.4956 30.3549 43.458 30.5585 43.3543 30.7604C43.255 30.9537 43.1436 31.0517 43.1146 31.0746L39.3967 26.3654ZM37.4956 30.2C37.4956 31.5417 37.9787 32.7618 38.8461 33.7449L43.3451 29.7751C43.361 29.7931 43.4071 29.8528 43.4457 29.9531C43.4848 30.0547 43.4956 30.1449 43.4956 30.2H37.4956ZM38.8461 33.7449C39.8524 34.8853 41.212 35.44 42.6556 35.44V29.44C42.6953 29.44 42.8206 29.4485 42.9844 29.5199C43.1525 29.5932 43.2745 29.6951 43.3451 29.7751L38.8461 33.7449ZM74.56 34.2L76.7486 36.2518L78.471 34.4146L76.96 32.4L74.56 34.2ZM58.76 34.72L56.6542 36.8567L56.6621 36.8645L56.6701 36.8723L58.76 34.72ZM58.96 19.84L60.8106 22.2012L60.8205 22.1935L60.8302 22.1857L58.96 19.84ZM69.96 17.84L69.3454 20.7764L69.3588 20.7791L69.96 17.84ZM72.52 18.6L71.1784 21.2833L71.2331 21.3106L71.2889 21.3358L72.52 18.6ZM73.32 18.96L76.2538 19.5866L76.7597 17.2181L74.5511 16.2242L73.32 18.96ZM72.44 23.08L71.5973 25.9592L74.6988 26.867L75.3738 23.7066L72.44 23.08ZM65.88 23.72L67.7124 26.0954L67.7218 26.0881L65.88 23.72ZM70.44 31.96L71.1676 34.8704L71.2241 34.8563L71.28 34.84L70.44 31.96ZM71.84 31.4L70.4034 28.7663L70.3147 28.8147L70.2294 28.869L71.84 31.4ZM72.28 31.16L74.68 29.36L73.1224 27.2832L70.8434 28.5263L72.28 31.16ZM72.3714 32.1482C71.025 33.5844 69.1862 34.4 66.52 34.4V40.4C70.5738 40.4 74.095 39.0823 76.7486 36.2518L72.3714 32.1482ZM66.52 34.4C63.7243 34.4 61.9772 33.6624 60.8499 32.5677L56.6701 36.8723C59.2228 39.351 62.649 40.4 66.52 40.4V34.4ZM60.8658 32.5833C59.7422 31.4759 59 29.7849 59 27.08H53C53 30.9351 54.0978 34.3374 56.6542 36.8567L60.8658 32.5833ZM59 27.08C59 24.414 59.7748 23.013 60.8106 22.2012L57.1094 17.4788C54.1985 19.7603 53 23.186 53 27.08H59ZM60.8302 22.1857C62.1837 21.1065 63.9569 20.48 66.36 20.48V14.48C62.8431 14.48 59.6829 15.4268 57.0898 17.4943L60.8302 22.1857ZM66.36 20.48C67.4211 20.48 68.4144 20.5815 69.3454 20.7764L70.5746 14.9036C69.2123 14.6185 67.8056 14.48 66.36 14.48V20.48ZM69.3588 20.7791C70.4787 21.0082 71.0121 21.2001 71.1784 21.2833L73.8616 15.9167C72.9613 15.4665 71.7879 15.1518 70.5612 14.9009L69.3588 20.7791ZM71.2889 21.3358L72.0889 21.6958L74.5511 16.2242L73.7511 15.8642L71.2889 21.3358ZM70.3862 18.3334L69.5062 22.4534L75.3738 23.7066L76.2538 19.5866L70.3862 18.3334ZM73.2827 20.2008C71.9075 19.7983 70.4899 19.6 69.04 19.6V25.6C69.9367 25.6 70.7858 25.7217 71.5973 25.9592L73.2827 20.2008ZM69.04 19.6C67.1841 19.6 65.4906 20.2223 64.0382 21.3519L67.7218 26.0881C68.1894 25.7244 68.6025 25.6 69.04 25.6V19.6ZM64.0476 21.3447C62.1729 22.7909 61.48 24.924 61.48 27.08H67.48C67.48 26.6194 67.5515 26.3685 67.5992 26.2538C67.638 26.1608 67.6714 26.127 67.7124 26.0953L64.0476 21.3447ZM61.48 27.08C61.48 29.09 61.8543 31.1488 63.097 32.7554C64.4527 34.5083 66.422 35.2 68.44 35.2V29.2C68.099 29.2 67.9407 29.1447 67.8949 29.125C67.8669 29.1129 67.8623 29.1095 67.843 29.0846C67.7657 28.9846 67.48 28.4834 67.48 27.08H61.48ZM68.44 35.2C69.3661 35.2 70.2778 35.0929 71.1676 34.8704L69.7124 29.0496C69.3222 29.1471 68.9005 29.2 68.44 29.2V35.2ZM71.28 34.84C71.9913 34.6325 72.7896 34.3516 73.4506 33.931L70.2294 28.869C70.2923 28.8289 70.2854 28.8428 70.1558 28.8946C70.0358 28.9426 69.8551 29.0056 69.6 29.08L71.28 34.84ZM73.2766 34.0337L73.7166 33.7937L70.8434 28.5263L70.4034 28.7663L73.2766 34.0337ZM69.88 32.96L72.16 36L76.96 32.4L74.68 29.36L69.88 32.96ZM84.6503 20.64L81.8503 21.7169L83.9237 27.1079L87.1416 22.3114L84.6503 20.64ZM92.6103 18.2L95.5787 18.6344L95.8727 16.6252L94.1167 15.6056L92.6103 18.2ZM91.6503 24.76L89.9299 27.2177L93.9144 30.0069L94.6187 25.1944L91.6503 24.76ZM85.4503 25.24L82.6893 24.0666L82.6768 24.0961L82.6649 24.1258L85.4503 25.24ZM84.9303 27.16L81.9555 26.772L81.9453 26.8503L81.9392 26.929L84.9303 27.16ZM84.1703 37V40H86.9475L87.1614 37.231L84.1703 37ZM76.9703 37L73.9763 37.1895L74.1542 40H76.9703V37ZM75.7703 18.04V15.04H72.5744L72.7763 18.2295L75.7703 18.04ZM83.6503 18.04L86.4503 16.9631L85.7107 15.04H83.6503V18.04ZM87.1416 22.3114C88.1375 20.8269 89.0374 20.48 89.8903 20.48V14.48C86.5833 14.48 83.9898 16.2398 82.159 18.9686L87.1416 22.3114ZM89.8903 20.48C90.3657 20.48 90.75 20.5889 91.1039 20.7944L94.1167 15.6056C92.8173 14.8511 91.3883 14.48 89.8903 14.48V20.48ZM89.6419 17.7656L88.6819 24.3256L94.6187 25.1944L95.5787 18.6344L89.6419 17.7656ZM93.3707 22.3023C91.787 21.1937 89.9834 20.64 88.0503 20.64V26.64C88.7839 26.64 89.3803 26.833 89.9299 27.2177L93.3707 22.3023ZM88.0503 20.64C86.9971 20.64 85.882 20.861 84.868 21.485C83.8331 22.1219 83.1243 23.0432 82.6893 24.0666L88.2113 26.4134C88.2249 26.3814 88.2206 26.4023 88.1819 26.4491C88.141 26.4988 88.0825 26.552 88.0126 26.595C87.9445 26.6369 87.8966 26.6501 87.8912 26.6515C87.8892 26.652 87.9369 26.64 88.0503 26.64V20.64ZM82.6649 24.1258C82.3195 24.9892 82.0727 25.8735 81.9555 26.772L87.9051 27.548C87.9479 27.2198 88.0478 26.8241 88.2357 26.3542L82.6649 24.1258ZM81.9392 26.929L81.1792 36.769L87.1614 37.231L87.9214 27.391L81.9392 26.929ZM84.1703 34H76.9703V40H84.1703V34ZM79.9643 36.8105L78.7643 17.8505L72.7763 18.2295L73.9763 37.1895L79.9643 36.8105ZM75.7703 21.04H83.6503V15.04H75.7703V21.04ZM80.8503 19.1169L81.8503 21.7169L87.4503 19.5631L86.4503 16.9631L80.8503 19.1169ZM104.417 29.88L101.42 29.7536L101.418 29.7909L101.418 29.8283L104.417 29.88ZM107.217 31.76L110.149 31.1252L109.231 26.8837L105.587 29.2413L107.217 31.76ZM108.057 35.64L109.978 37.9447L111.374 36.7813L110.989 35.0052L108.057 35.64ZM107.377 36.16L109.098 38.6177L109.12 38.6021L109.142 38.5862L107.377 36.16ZM105.577 36.92L104.604 34.0822L104.591 34.0865L104.579 34.091L105.577 36.92ZM98.2972 35.56L96.0838 37.585L96.0946 37.5969L96.1056 37.6087L98.2972 35.56ZM96.4572 30.8L99.4546 30.6751L99.4542 30.6662L99.4538 30.6573L96.4572 30.8ZM96.0972 23.24L99.0938 23.0973L98.9577 20.24H96.0972V23.24ZM93.0172 23.24L90.0299 22.9642L89.7275 26.24H93.0172V23.24ZM93.4972 18.04V15.04H90.7614L90.5099 17.7642L93.4972 18.04ZM95.8972 18.04V21.04H99.0221L98.8947 17.9177L95.8972 18.04ZM95.7372 14.12L95.1417 11.1797L92.6354 11.6873L92.7397 14.2423L95.7372 14.12ZM105.217 12.2L108.214 12.3437L108.398 8.49482L104.622 9.2597L105.217 12.2ZM104.937 18.04L101.941 17.8963L101.79 21.04H104.937V18.04ZM107.257 18.04L110.244 17.7642L109.993 15.04H107.257V18.04ZM107.737 23.24V26.24H111.027L110.724 22.9642L107.737 23.24ZM104.697 23.24V20.24H101.821L101.7 23.1136L104.697 23.24ZM101.418 29.8283C101.4 30.8695 101.548 32.2068 102.357 33.3517C103.301 34.6863 104.726 35.2 106.057 35.2V29.2C106.12 29.2 106.323 29.2111 106.587 29.3337C106.869 29.4646 107.101 29.6676 107.257 29.8883C107.399 30.0896 107.432 30.2375 107.432 30.2389C107.433 30.2421 107.428 30.2197 107.423 30.1661C107.418 30.1127 107.415 30.0357 107.417 29.9317L101.418 29.8283ZM106.057 35.2C107.229 35.2 108.206 34.6937 108.847 34.2787L105.587 29.2413C105.488 29.3056 105.469 29.3056 105.523 29.285C105.575 29.2653 105.765 29.2 106.057 29.2V35.2ZM104.285 32.3948L105.125 36.2748L110.989 35.0052L110.149 31.1252L104.285 32.3948ZM106.137 33.3353C106.051 33.4067 105.885 33.5354 105.613 33.7338L109.142 38.5862C109.456 38.3579 109.743 38.14 109.978 37.9447L106.137 33.3353ZM105.657 33.7023C105.747 33.6392 105.794 33.6185 105.757 33.6375C105.728 33.6521 105.666 33.6817 105.56 33.7263C105.348 33.8161 105.035 33.9345 104.604 34.0822L106.55 39.7578C107.41 39.4631 108.425 39.0884 109.098 38.6177L105.657 33.7023ZM104.579 34.091C104.001 34.2949 103.393 34.4 102.737 34.4V40.4C104.055 40.4 105.34 40.1851 106.576 39.749L104.579 34.091ZM102.737 34.4C101.68 34.4 101.019 34.079 100.489 33.5113L96.1056 37.6087C97.8683 39.4943 100.167 40.4 102.737 40.4V34.4ZM100.511 33.535C99.9034 32.8713 99.5093 31.9876 99.4546 30.6751L93.4598 30.9249C93.5651 33.4524 94.3976 35.7421 96.0838 37.585L100.511 33.535ZM99.4538 30.6573L99.0938 23.0973L93.1006 23.3827L93.4606 30.9427L99.4538 30.6573ZM96.0972 20.24H93.0172V26.24H96.0972V20.24ZM96.0045 23.5158L96.4845 18.3157L90.5099 17.7642L90.0299 22.9642L96.0045 23.5158ZM93.4972 21.04H95.8972V15.04H93.4972V21.04ZM98.8947 17.9177L98.7347 13.9977L92.7397 14.2423L92.8997 18.1623L98.8947 17.9177ZM96.3327 17.0603L105.813 15.1403L104.622 9.2597L95.1417 11.1797L96.3327 17.0603ZM102.221 12.0563L101.941 17.8963L107.934 18.1837L108.214 12.3437L102.221 12.0563ZM104.937 21.04H107.257V15.04H104.937V21.04ZM104.27 18.3157L104.75 23.5158L110.724 22.9642L110.244 17.7642L104.27 18.3157ZM107.737 20.24H104.697V26.24H107.737V20.24ZM101.7 23.1136L101.42 29.7536L107.415 30.0064L107.695 23.3664L101.7 23.1136ZM112.218 35.6L110.189 37.8096L110.2 37.8198L110.211 37.8299L112.218 35.6ZM112.498 25.72L114.152 28.223L114.167 28.2128L114.182 28.2024L112.498 25.72ZM123.378 25.2L122.19 27.955L127.183 30.107L126.342 24.7358L123.378 25.2ZM115.018 22.56L112.127 23.3629L112.928 26.2439L115.811 25.4532L115.018 22.56ZM114.018 18.96L112.877 16.1853L110.415 17.1977L111.127 19.7629L114.018 18.96ZM131.338 35.24L128.363 34.852L128.36 34.8766L128.357 34.9013L131.338 35.24ZM131.138 37V40H133.816L134.119 37.3387L131.138 37ZM124.538 37L121.556 37.3253L121.847 40H124.538V37ZM124.298 34.8L127.28 34.4747L126.621 28.4295L122.225 32.6314L124.298 34.8ZM123.978 31.44L125.825 33.8041L127.114 32.7972L126.965 31.1684L123.978 31.44ZM123.738 28.8L126.725 28.5284L126.597 27.1164L125.425 26.3192L123.738 28.8ZM119.498 28.72L117.698 26.32L117.668 26.3423L117.639 26.3654L119.498 28.72ZM119.338 31.76L117.088 33.7449L117.088 33.7449L119.338 31.76ZM117.298 34.4C115.871 34.4 114.928 34.0027 114.225 33.3701L110.211 37.8299C112.175 39.5973 114.618 40.4 117.298 40.4V34.4ZM114.247 33.3904C113.698 32.8866 113.258 32.0769 113.258 30.52H107.258C107.258 33.3365 108.124 35.9134 110.189 37.8096L114.247 33.3904ZM113.258 30.52C113.258 29.0425 113.703 28.5196 114.152 28.223L110.844 23.217C108.306 24.8937 107.258 27.5709 107.258 30.52H113.258ZM114.182 28.2024C115.1 27.5799 116.289 27.2 117.898 27.2V21.2C115.294 21.2 112.883 21.8334 110.813 23.2376L114.182 28.2024ZM117.898 27.2C119.695 27.2 121.1 27.485 122.19 27.955L124.565 22.445C122.562 21.5816 120.314 21.2 117.898 21.2V27.2ZM126.342 24.7358C126.083 23.0815 125.362 21.4896 123.928 20.3565C122.531 19.252 120.83 18.88 119.178 18.88V24.88C119.979 24.88 120.205 25.0613 120.207 25.0635C120.212 25.0671 120.232 25.0809 120.265 25.1443C120.304 25.2171 120.369 25.3751 120.414 25.6642L126.342 24.7358ZM119.178 18.88C117.688 18.88 116.015 19.1759 114.225 19.6668L115.811 25.4532C117.327 25.0375 118.428 24.88 119.178 24.88V18.88ZM117.908 21.7571L116.908 18.1571L111.127 19.7629L112.127 23.3629L117.908 21.7571ZM115.159 21.7347C117.214 20.8898 119.267 20.48 121.338 20.48V14.48C118.448 14.48 115.622 15.0569 112.877 16.1853L115.159 21.7347ZM121.338 20.48C124.557 20.48 126.411 21.1749 127.434 22.045C128.364 22.8361 129.058 24.1607 129.058 26.6H135.058C135.058 22.9593 133.965 19.7239 131.322 17.475C128.771 15.3051 125.266 14.48 121.338 14.48V20.48ZM129.058 26.6C129.058 28.4873 128.837 31.2177 128.363 34.852L134.313 35.628C134.799 31.9023 135.058 28.8727 135.058 26.6H129.058ZM128.357 34.9013L128.157 36.6613L134.119 37.3387L134.319 35.5787L128.357 34.9013ZM131.138 34H124.538V40H131.138V34ZM127.52 36.6747L127.28 34.4747L121.316 35.1253L121.556 37.3253L127.52 36.6747ZM122.225 32.6314C121.048 33.7568 119.494 34.4 117.298 34.4V40.4C120.809 40.4 123.921 39.3099 126.371 36.9686L122.225 32.6314ZM120.898 35.44C122.691 35.44 124.387 34.9276 125.825 33.8041L122.131 29.0759C121.862 29.2857 121.505 29.44 120.898 29.44V35.44ZM126.965 31.1684L126.725 28.5284L120.75 29.0716L120.99 31.7116L126.965 31.1684ZM125.425 26.3192C124.247 25.5185 122.91 25.12 121.498 25.12V31.12C121.739 31.12 121.895 31.1748 122.051 31.2808L125.425 26.3192ZM121.498 25.12C120.182 25.12 118.848 25.4574 117.698 26.32L121.298 31.12C121.27 31.141 121.25 31.1466 121.26 31.1435C121.275 31.1388 121.347 31.12 121.498 31.12V25.12ZM117.639 26.3654C116.494 27.269 115.738 28.5948 115.738 30.2H121.738C121.738 30.3549 121.7 30.5585 121.597 30.7604C121.497 30.9537 121.386 31.0517 121.357 31.0746L117.639 26.3654ZM115.738 30.2C115.738 31.5417 116.221 32.7618 117.088 33.7449L121.587 29.7751C121.603 29.7931 121.649 29.8528 121.688 29.9531C121.727 30.0547 121.738 30.1449 121.738 30.2H115.738ZM117.088 33.7449C118.095 34.8853 119.454 35.44 120.898 35.44V29.44C120.937 29.44 121.063 29.4485 121.227 29.5199C121.395 29.5932 121.517 29.6951 121.587 29.7751L117.088 33.7449ZM135.122 40.84L132.938 38.7839L135.122 40.84ZM135.962 39.48L133.133 38.4815L133.107 38.5569L133.084 38.6335L135.962 39.48ZM135.042 18.36L136.165 15.5779L131.762 13.8016L132.048 18.5402L135.042 18.36ZM144.602 18.6L145.518 21.4566L145.588 21.4345L145.656 21.409L144.602 18.6ZM145.242 18.36L148.234 18.5765L148.572 13.9073L144.189 15.551L145.242 18.36ZM143.882 37.16L140.89 36.9435V36.9437L143.882 37.16ZM141.722 42.44L139.579 40.3407L139.568 40.3519L139.557 40.3633L141.722 42.44ZM136.202 44.4L134.372 46.7767L135.181 47.4H136.202V44.4ZM133.242 42.12L131.985 39.3961L127.486 41.4727L131.411 44.4967L133.242 42.12ZM133.762 41.88L135.019 44.6039L135.062 44.5842L135.104 44.5633L133.762 41.88ZM136.762 16.32L134.777 18.5695L136.762 16.32ZM136.722 10.08L138.703 12.3335L138.707 12.3295L136.722 10.08ZM143.482 10.08L145.467 7.83049V7.83048L143.482 10.08ZM143.482 16.32L145.467 18.5695L143.482 16.32ZM137.307 42.8961C137.958 42.2043 138.539 41.3521 138.84 40.3265L133.084 38.6335C133.102 38.5731 133.117 38.556 133.1 38.5835C133.082 38.6125 133.035 38.6804 132.938 38.7839L137.307 42.8961ZM138.791 40.4785C139.042 39.7672 139.202 39.0009 139.202 38.2H133.202C133.202 38.2 133.202 38.2 133.202 38.2C133.202 38.2 133.202 38.2 133.202 38.2C133.202 38.2 133.202 38.2 133.202 38.2001C133.202 38.2001 133.202 38.2002 133.202 38.2002C133.202 38.2004 133.202 38.2006 133.202 38.201C133.202 38.2016 133.202 38.2026 133.202 38.2039C133.202 38.2065 133.202 38.2105 133.201 38.216C133.2 38.227 133.198 38.2439 133.194 38.2671C133.185 38.314 133.167 38.3849 133.133 38.4815L138.791 40.4785ZM139.202 38.2C139.202 37.7066 138.804 30.9265 138.037 18.1798L132.048 18.5402C132.434 24.9664 132.724 29.831 132.917 33.1351C133.014 34.7875 133.086 36.0472 133.134 36.9158C133.186 37.859 133.202 38.2152 133.202 38.2H139.202ZM133.92 21.142C135.842 21.9179 137.924 22.28 140.122 22.28V16.28C138.587 16.28 137.282 16.0287 136.165 15.5779L133.92 21.142ZM140.122 22.28C141.988 22.28 143.792 22.0105 145.518 21.4566L143.686 15.7434C142.586 16.0961 141.403 16.28 140.122 16.28V22.28ZM145.656 21.409L146.296 21.169L144.189 15.551L143.549 15.791L145.656 21.409ZM142.25 18.1435L140.89 36.9435L146.874 37.3765L148.234 18.5765L142.25 18.1435ZM140.89 36.9437C140.77 38.6059 140.262 39.6436 139.579 40.3407L143.865 44.5393C145.742 42.623 146.675 40.1408 146.874 37.3763L140.89 36.9437ZM139.557 40.3633C139.042 40.9 138.1 41.4 136.202 41.4V47.4C139.158 47.4 141.895 46.5933 143.887 44.5167L139.557 40.3633ZM138.033 42.0233L135.073 39.7433L131.411 44.4967L134.372 46.7767L138.033 42.0233ZM134.499 44.8439L135.019 44.6039L132.505 39.1561L131.985 39.3961L134.499 44.8439ZM135.104 44.5633C135.946 44.1424 136.676 43.566 137.307 42.8961L132.938 38.7839C132.715 39.0206 132.539 39.1376 132.421 39.1967L135.104 44.5633ZM140.122 14.52C139.439 14.52 139.048 14.3359 138.747 14.0705L134.777 18.5695C136.29 19.9041 138.139 20.52 140.122 20.52V14.52ZM138.747 14.0705C138.527 13.8767 138.402 13.6764 138.402 13.2H132.402C132.402 15.2836 133.184 17.1633 134.777 18.5695L138.747 14.0705ZM138.402 13.2C138.402 12.6449 138.55 12.4677 138.703 12.3335L134.742 7.8265C133.135 9.23896 132.402 11.1417 132.402 13.2H138.402ZM138.707 12.3295C139.008 12.0641 139.399 11.88 140.082 11.88V5.88C138.099 5.88 136.25 6.4959 134.737 7.83048L138.707 12.3295ZM140.082 11.88C140.809 11.88 141.208 12.0741 141.497 12.3295L145.467 7.83048C143.943 6.48591 142.075 5.88 140.082 5.88V11.88ZM141.497 12.3295C141.717 12.5233 141.842 12.7236 141.842 13.2H147.842C147.842 11.1164 147.061 9.23673 145.467 7.83049L141.497 12.3295ZM141.842 13.2C141.842 13.6764 141.717 13.8767 141.497 14.0705L145.467 18.5695C147.061 17.1633 147.842 15.2836 147.842 13.2H141.842ZM141.497 14.0705C141.197 14.3359 140.805 14.52 140.122 14.52V20.52C142.106 20.52 143.955 19.9041 145.467 18.5695L141.497 14.0705ZM161.605 35.4L163.124 32.8128L161.365 31.7805L159.758 33.0359L161.605 35.4ZM148.845 35.28L150.831 33.0316L148.845 35.28ZM149.885 24.48L151.543 26.9806L153.883 25.4294L152.49 22.9916L149.885 24.48ZM151.365 15.64L152.898 18.2191L152.909 18.2125L151.365 15.64ZM164.525 15.16L167.512 15.4444L167.718 13.2769L165.721 12.4088L164.525 15.16ZM164.125 19.36L162.862 22.081L166.71 23.8674L167.112 19.6444L164.125 19.36ZM159.245 19.6L161.045 22L161.077 21.9765L161.107 21.9521L159.245 19.6ZM161.125 27.84L158.834 29.7766L162.796 34.4644L164.061 28.458L161.125 27.84ZM161.325 22.52V19.52H157.974L158.344 22.8513L161.325 22.52ZM166.885 22.52L169.838 21.9907L169.395 19.52H166.885V22.52ZM167.645 26.76V29.76H171.231L170.598 26.2307L167.645 26.76ZM165.685 26.76V23.76H162.962L162.699 26.471L165.685 26.76ZM164.685 31.24L161.881 30.1743L161.099 32.2312L162.826 33.5946L164.685 31.24ZM169.645 34.4L172.397 35.5962L173.524 33.0039L171.003 31.7248L169.645 34.4ZM168.045 38.08L167.49 41.0281L169.842 41.4713L170.797 39.2762L168.045 38.08ZM153.245 31.96L151.179 34.135L151.208 34.1628L151.238 34.1899L153.245 31.96ZM157.325 32.44L158.149 35.3246L163.896 33.6828L159.146 30.0557L157.325 32.44ZM153.045 28.6L155.206 26.5191L153.016 24.2447L150.857 26.5482L153.045 28.6ZM159.758 33.0359C158.682 33.8772 157.212 34.4 155.125 34.4V40.4C158.265 40.4 161.116 39.5895 163.452 37.7641L159.758 33.0359ZM155.125 34.4C153.108 34.4 151.773 33.8631 150.831 33.0316L146.859 37.5284C149.118 39.5236 151.969 40.4 155.125 40.4V34.4ZM150.831 33.0316C149.795 32.1165 149.445 31.2378 149.445 30.28H143.445C143.445 33.1622 144.695 35.6168 146.859 37.5284L150.831 33.0316ZM149.445 30.28C149.445 29.1249 149.92 28.0559 151.543 26.9806L148.228 21.9794C145.264 23.9441 143.445 26.7418 143.445 30.28H149.445ZM152.49 22.9916C151.769 21.729 151.605 20.9506 151.605 20.56H145.605C145.605 22.4094 146.295 24.2443 147.281 25.9684L152.49 22.9916ZM151.605 20.56C151.605 19.4035 151.992 18.7575 152.898 18.219L149.833 13.0609C147.059 14.7092 145.605 17.3432 145.605 20.56H151.605ZM152.909 18.2125C154.237 17.4153 155.885 16.96 157.965 16.96V10.96C154.979 10.96 152.227 11.6247 149.822 13.0675L152.909 18.2125ZM157.965 16.96C160.191 16.96 161.952 17.3123 163.329 17.9112L165.721 12.4088C163.419 11.4076 160.806 10.96 157.965 10.96V16.96ZM161.539 14.8756L161.139 19.0756L167.112 19.6444L167.512 15.4444L161.539 14.8756ZM165.389 16.639C164.196 16.0854 162.917 15.84 161.605 15.84V21.84C162.161 21.84 162.561 21.9413 162.862 22.081L165.389 16.639ZM161.605 15.84C160.098 15.84 158.628 16.2625 157.383 17.2479L161.107 21.9521C161.143 21.9242 161.246 21.84 161.605 21.84V15.84ZM157.445 17.2C155.918 18.3457 155.285 20.0209 155.285 21.72H161.285C161.285 21.595 161.306 21.6213 161.258 21.7275C161.235 21.7796 161.201 21.8359 161.158 21.8893C161.115 21.9424 161.074 21.9787 161.045 22L157.445 17.2ZM155.285 21.72C155.285 24.5841 156.739 27.2979 158.834 29.7766L163.417 25.9034C161.725 23.9021 161.285 22.5359 161.285 21.72H155.285ZM164.061 28.458C164.311 27.2696 164.445 26.1012 164.445 24.96H158.445C158.445 25.6321 158.366 26.3838 158.19 27.222L164.061 28.458ZM164.445 24.96C164.445 23.9688 164.402 23.042 164.307 22.1887L158.344 22.8513C158.409 23.438 158.445 24.1378 158.445 24.96H164.445ZM161.325 25.52H166.885V19.52H161.325V25.52ZM163.932 23.0493L164.692 27.2893L170.598 26.2307L169.838 21.9907L163.932 23.0493ZM167.645 23.76H165.685V29.76H167.645V23.76ZM162.699 26.471C162.561 27.901 162.279 29.1277 161.881 30.1743L167.49 32.3057C168.105 30.6857 168.49 28.9256 168.671 27.049L162.699 26.471ZM162.826 33.5946C164.508 34.922 166.33 36.0817 168.288 37.0752L171.003 31.7248C169.387 30.905 167.903 29.958 166.544 28.8854L162.826 33.5946ZM166.894 33.2038L165.294 36.8838L170.797 39.2762L172.397 35.5962L166.894 33.2038ZM168.601 35.1319C167.228 34.8733 165.418 34.1592 163.124 32.8128L160.087 37.9872C162.699 39.5208 165.182 40.5933 167.49 41.0281L168.601 35.1319ZM149.445 30.24C149.445 31.8277 150.147 33.1545 151.179 34.135L155.312 29.785C155.274 29.7494 155.316 29.7788 155.365 29.8848C155.419 29.9994 155.445 30.1284 155.445 30.24H149.445ZM151.238 34.1899C152.387 35.2238 153.796 35.68 155.245 35.68V29.68C155.195 29.68 155.166 29.6763 155.155 29.6744C155.144 29.6726 155.147 29.6722 155.161 29.6773C155.176 29.6826 155.194 29.6909 155.214 29.7025C155.233 29.7141 155.246 29.7246 155.252 29.7301L151.238 34.1899ZM155.245 35.68C156.244 35.68 157.235 35.5857 158.149 35.3246L156.501 29.5554C156.295 29.6143 155.9 29.68 155.245 29.68V35.68ZM159.146 30.0557C157.81 29.0353 156.496 27.8584 155.206 26.5191L150.884 30.6809C152.368 32.2216 153.907 33.6047 155.505 34.8243L159.146 30.0557ZM150.857 26.5482C149.862 27.6093 149.445 28.926 149.445 30.24H155.445C155.445 30.2079 155.45 30.2596 155.413 30.3607C155.373 30.4685 155.309 30.572 155.234 30.6518L150.857 26.5482ZM186.888 23.76L184.729 21.6776V21.6776L186.888 23.76ZM186.928 18.6L184.999 20.8971L185.048 20.9386L185.099 20.9779L186.928 18.6ZM182.728 17.76V14.76H180.001L179.742 17.4748L182.728 17.76ZM182.048 24.88L179.062 24.5948L178.748 27.88H182.048V24.88ZM181.528 30V27H178.806L178.542 29.7099L181.528 30ZM180.848 37V40H183.571L183.834 37.2901L180.848 37ZM173.048 37L170.063 37.2956L170.331 40H173.048V37ZM170.648 12.76V9.76H167.337L167.663 13.0556L170.648 12.76ZM195.288 14.92L193.371 17.2276L193.391 17.2435L193.41 17.2591L195.288 14.92ZM196.928 25.28L194.306 23.8231L194.293 23.8455L194.281 23.8682L196.928 25.28ZM194.288 28.08L195.818 30.6609L195.823 30.6579L194.288 28.08ZM183.968 27.88C185.849 27.88 187.66 27.2819 189.048 25.8424L184.729 21.6776C184.677 21.7314 184.541 21.88 183.968 21.88V27.88ZM189.048 25.8424C190.324 24.5192 190.968 22.8589 190.968 21.04H184.968C184.968 21.3544 184.893 21.5075 184.729 21.6776L189.048 25.8424ZM190.968 21.04C190.968 19.2723 190.371 17.4636 188.758 16.2221L185.099 20.9779C185.074 20.9584 185.041 20.9276 185.009 20.8862C184.977 20.8449 184.958 20.8084 184.949 20.7863C184.931 20.7442 184.968 20.8048 184.968 21.04H190.968ZM188.858 16.3029C187.537 15.1931 185.936 14.76 184.328 14.76V20.76C184.854 20.76 184.987 20.8869 184.999 20.8971L188.858 16.3029ZM184.328 14.76H182.728V20.76H184.328V14.76ZM179.742 17.4748L179.062 24.5948L185.035 25.1652L185.715 18.0452L179.742 17.4748ZM182.048 27.88H183.968V21.88H182.048V27.88ZM186.488 27H181.528V33H186.488V27ZM178.542 29.7099L177.862 36.7099L183.834 37.2901L184.514 30.2901L178.542 29.7099ZM180.848 34H173.048V40H180.848V34ZM176.034 36.7044L173.634 12.4644L167.663 13.0556L170.063 37.2956L176.034 36.7044ZM170.648 15.76H188.488V9.76H170.648V15.76ZM188.488 15.76C190.763 15.76 192.297 16.3354 193.371 17.2276L197.205 12.6124C194.813 10.6246 191.814 9.76 188.488 9.76V15.76ZM193.41 17.2591C194.329 17.997 194.928 19.0987 194.928 21.04H200.928C200.928 17.648 199.768 14.6697 197.167 12.5809L193.41 17.2591ZM194.928 21.04C194.928 22.2513 194.683 23.1446 194.306 23.8231L199.551 26.7369C200.507 25.0154 200.928 23.082 200.928 21.04H194.928ZM194.281 23.8682C193.887 24.6073 193.383 25.1278 192.754 25.5021L195.823 30.6579C197.434 29.6988 198.69 28.3527 199.576 26.6918L194.281 23.8682ZM192.759 25.4991C191.151 26.4522 189.104 27 186.488 27V33C189.953 33 193.106 32.2678 195.818 30.6609L192.759 25.4991ZM202.005 35.04L200.084 37.3447L200.102 37.3591L200.119 37.3732L202.005 35.04ZM202.005 19.88L203.906 22.2004L203.91 22.1976L202.005 19.88ZM217.485 19.88L215.564 22.1847L215.582 22.1991L215.599 22.2132L217.485 19.88ZM217.485 35.04L219.386 37.3604L219.39 37.3576L217.485 35.04ZM208.085 22.92L210.914 23.9185L210.918 23.9057L210.923 23.893L208.085 22.92ZM208.085 32L205.247 32.973L205.252 32.9857L205.256 32.9985L208.085 32ZM211.445 32L214.274 32.9985L214.278 32.9857L214.283 32.973L211.445 32ZM211.445 22.92L208.607 23.893L208.612 23.9057L208.616 23.9185L211.445 22.92ZM203.926 32.7353C202.926 31.9021 202.125 30.3779 202.125 27.44H196.125C196.125 31.4354 197.244 34.9779 200.084 37.3447L203.926 32.7353ZM202.125 27.44C202.125 24.4982 202.927 23.003 203.906 22.2004L200.104 17.5596C197.243 19.9037 196.125 23.4485 196.125 27.44H202.125ZM203.91 22.1976C205.184 21.1503 207.035 20.48 209.765 20.48V14.48C206.042 14.48 202.719 15.4097 200.1 17.5624L203.91 22.1976ZM209.765 20.48C212.498 20.48 214.324 21.1511 215.564 22.1847L219.406 17.5753C216.806 15.4089 213.486 14.48 209.765 14.48V20.48ZM215.599 22.2132C216.598 23.0201 217.405 24.5113 217.405 27.44H223.405C223.405 23.4354 222.266 19.8866 219.371 17.5468L215.599 22.2132ZM217.405 27.44C217.405 30.365 216.599 31.885 215.58 32.7224L219.39 37.3576C222.264 34.995 223.405 31.4484 223.405 27.44H217.405ZM215.584 32.7196C214.343 33.7363 212.509 34.4 209.765 34.4V40.4C213.474 40.4 216.787 39.4904 219.386 37.3604L215.584 32.7196ZM209.765 34.4C207.023 34.4 205.166 33.7372 203.891 32.7068L200.119 37.3732C202.738 39.4895 206.053 40.4 209.765 40.4V34.4ZM205.256 21.9215C204.753 23.3476 204.605 25.3004 204.605 27.44H210.605C210.605 25.3662 210.777 24.3058 210.914 23.9185L205.256 21.9215ZM204.605 27.44C204.605 29.5893 204.755 31.5372 205.247 32.973L210.923 31.027C210.775 30.5961 210.605 29.5041 210.605 27.44H204.605ZM205.256 32.9985C205.541 33.8047 206.025 34.6779 206.857 35.3517C207.731 36.0589 208.758 36.36 209.765 36.36V30.36C209.85 30.36 209.99 30.3726 210.159 30.4289C210.332 30.4866 210.494 30.5765 210.633 30.6883C210.905 30.9087 210.949 31.102 210.914 31.0015L205.256 32.9985ZM209.765 36.36C210.772 36.36 211.799 36.0589 212.673 35.3517C213.505 34.6779 213.989 33.8047 214.274 32.9985L208.616 31.0015C208.581 31.102 208.625 30.9087 208.897 30.6883C209.036 30.5765 209.198 30.4866 209.371 30.4289C209.54 30.3726 209.68 30.36 209.765 30.36V36.36ZM214.283 32.973C214.775 31.5372 214.925 29.5893 214.925 27.44H208.925C208.925 29.5041 208.755 30.5961 208.607 31.027L214.283 32.973ZM214.925 27.44C214.925 25.3004 214.777 23.3476 214.274 21.9215L208.616 23.9185C208.753 24.3058 208.925 25.3662 208.925 27.44H214.925ZM214.283 21.947C214.006 21.1383 213.531 20.2535 212.706 19.5653C211.833 18.838 210.794 18.52 209.765 18.52V24.52C209.671 24.52 209.523 24.5057 209.346 24.4451C209.166 24.3832 209.001 24.2885 208.864 24.1747C208.599 23.9531 208.564 23.7684 208.607 23.893L214.283 21.947ZM209.765 18.52C208.736 18.52 207.697 18.838 206.824 19.5653C205.999 20.2535 205.524 21.1383 205.247 21.947L210.923 23.893C210.966 23.7684 210.931 23.9531 210.666 24.1747C210.529 24.2885 210.364 24.3832 210.184 24.4451C210.007 24.5057 209.859 24.52 209.765 24.52V18.52ZM230.206 43.8L231.118 40.942L231.091 40.9332L231.063 40.9248L230.206 43.8ZM227.446 42.68L225.756 45.1587L225.796 45.1855L225.836 45.211L227.446 42.68ZM226.566 42.08L223.871 40.7624L222.73 43.0956L224.876 44.5587L226.566 42.08ZM228.326 38.48L229.643 35.7843L226.948 34.4683L225.631 37.1624L228.326 38.48ZM236.766 32.84L239.751 32.5415L238.72 22.2249L234.083 31.4984L236.766 32.84ZM224.606 34.32L222.447 36.4031L222.457 36.4128L222.466 36.4225L224.606 34.32ZM223.166 22.32L220.381 21.2058L220.371 21.23L220.362 21.2543L223.166 22.32ZM225.246 19.32L223.402 16.9541L223.399 16.9559L225.246 19.32ZM233.886 18.44L235.646 16.0102L235.615 15.9876L235.583 15.9658L233.886 18.44ZM235.846 20.28L233.504 22.1541L239.924 30.1797L238.829 19.9604L235.846 20.28ZM235.606 18.04V15.04H232.268L232.623 18.3596L235.606 18.04ZM244.886 18.04L247.883 18.171L248.02 15.04H244.886V18.04ZM244.206 33.6L247.203 33.7443L247.203 33.731L244.206 33.6ZM230.806 28.84L227.843 29.3079L227.855 29.3833L227.871 29.458L230.806 28.84ZM231.566 30.36L229.212 32.2189L229.241 32.2561L229.272 32.2924L231.566 30.36ZM235.086 30L232.442 28.5833L232.422 28.6206L232.403 28.6584L235.086 30ZM234.046 41.4C233.051 41.4 232.079 41.2486 231.118 40.942L229.294 46.658C230.84 47.1514 232.428 47.4 234.046 47.4V41.4ZM231.063 40.9248C229.885 40.5741 229.286 40.295 229.057 40.149L225.836 45.211C226.78 45.8117 228.02 46.2792 229.35 46.6752L231.063 40.9248ZM229.136 40.2013L228.256 39.6013L224.876 44.5587L225.756 45.1587L229.136 40.2013ZM229.261 43.3976L231.021 39.7976L225.631 37.1624L223.871 40.7624L229.261 43.3976ZM227.01 41.1757C228.45 41.8793 229.97 42.32 231.526 42.32V36.32C231.109 36.32 230.495 36.2007 229.643 35.7843L227.01 41.1757ZM231.526 42.32C234.006 42.32 236.364 41.499 237.933 39.391L233.12 35.809C232.982 35.9943 232.673 36.32 231.526 36.32V42.32ZM237.933 39.391C239.19 37.7024 239.806 35.7477 239.806 33.64H233.806C233.806 34.5189 233.57 35.2042 233.12 35.809L237.933 39.391ZM239.806 33.64C239.806 33.2731 239.788 32.9069 239.751 32.5415L233.781 33.1385C233.798 33.3065 233.806 33.4735 233.806 33.64H239.806ZM234.083 31.4984C233.666 32.3328 233.195 32.8115 232.723 33.0993C232.249 33.3891 231.585 33.6 230.606 33.6V39.6C232.481 39.6 234.271 39.1842 235.849 38.2207C237.431 37.2552 238.613 35.8538 239.45 34.1816L234.083 31.4984ZM230.606 33.6C228.751 33.6 227.576 33.0626 226.746 32.2175L222.466 36.4225C224.623 38.6174 227.448 39.6 230.606 39.6V33.6ZM226.765 32.2369C226.074 31.521 225.406 30.0341 225.406 27.08H219.406C219.406 30.7393 220.205 34.079 222.447 36.4031L226.765 32.2369ZM225.406 27.08C225.406 25.5036 225.625 24.2958 225.971 23.3857L220.362 21.2543C219.694 23.0108 219.406 24.9764 219.406 27.08H225.406ZM225.952 23.4342C226.35 22.4375 226.772 21.9347 227.093 21.6841L223.399 16.9559C222.013 18.0386 221.049 19.5359 220.381 21.2058L225.952 23.4342ZM227.091 21.6859C228.159 20.8529 229.262 20.48 230.486 20.48V14.48C227.87 14.48 225.48 15.3338 223.402 16.9541L227.091 21.6859ZM230.486 20.48C231.324 20.48 231.84 20.6743 232.19 20.9142L235.583 15.9658C234.066 14.9257 232.315 14.48 230.486 14.48V20.48ZM232.127 20.8698C232.707 21.2901 233.157 21.7212 233.504 22.1541L238.189 18.4059C237.468 17.5054 236.612 16.7099 235.646 16.0102L232.127 20.8698ZM238.829 19.9604L238.589 17.7204L232.623 18.3596L232.863 20.5996L238.829 19.9604ZM235.606 21.04H244.886V15.04H235.606V21.04ZM241.889 17.909L241.209 33.469L247.203 33.731L247.883 18.171L241.889 17.909ZM241.21 33.4557C241.055 36.6618 240.243 38.5578 239.221 39.6444C238.252 40.6746 236.694 41.4 234.046 41.4V47.4C237.826 47.4 241.174 46.3254 243.591 43.7556C245.956 41.2421 247.01 37.7382 247.203 33.7443L241.21 33.4557ZM233.046 19.88C232.169 19.88 231.261 20.0905 230.43 20.607C229.608 21.1179 229.028 21.8241 228.633 22.562C227.889 23.9482 227.686 25.6432 227.686 27.28H233.686C233.686 26.6723 233.728 26.2145 233.787 25.883C233.816 25.7199 233.847 25.6006 233.874 25.5178C233.887 25.477 233.898 25.4473 233.907 25.4272C233.911 25.4173 233.914 25.41 233.916 25.4051C233.919 25.4003 233.92 25.398 233.92 25.398C233.918 25.4026 233.829 25.5588 233.597 25.703C233.356 25.8528 233.137 25.88 233.046 25.88V19.88ZM227.686 27.28C227.686 27.9638 227.738 28.6405 227.843 29.3079L233.77 28.3721C233.715 28.0262 233.686 27.6628 233.686 27.28H227.686ZM227.871 29.458C228.093 30.5155 228.594 31.4366 229.212 32.2189L233.921 28.5011C233.739 28.2701 233.733 28.1779 233.742 28.222L227.871 29.458ZM229.272 32.2924C230.366 33.5925 231.873 34.12 233.366 34.12V28.12C233.307 28.12 233.371 28.1106 233.503 28.1663C233.647 28.227 233.775 28.3251 233.861 28.4276L229.272 32.2924ZM233.366 34.12C234.256 34.12 235.178 33.8979 236.013 33.354C236.835 32.8186 237.397 32.0871 237.77 31.3416L232.403 28.6584C232.402 28.6596 232.49 28.488 232.739 28.326C233.001 28.1554 233.25 28.12 233.366 28.12V34.12ZM237.731 31.4167C238.417 30.1356 238.686 28.7154 238.686 27.28H232.686C232.686 27.9779 232.556 28.371 232.442 28.5833L237.731 31.4167ZM238.686 27.28C238.686 25.6113 238.453 23.861 237.599 22.4365C236.598 20.7679 234.943 19.88 233.046 19.88V25.88C233.061 25.88 232.929 25.88 232.744 25.7775C232.556 25.6728 232.468 25.5471 232.454 25.5235C232.451 25.5195 232.517 25.6313 232.58 25.9433C232.641 26.2511 232.686 26.6877 232.686 27.28H238.686ZM249.778 35.04L247.858 37.3447L247.875 37.3591L247.893 37.3732L249.778 35.04ZM249.778 19.88L251.68 22.2004L251.683 22.1976L249.778 19.88ZM265.258 19.88L263.338 22.1847L263.355 22.1991L263.373 22.2132L265.258 19.88ZM265.258 35.04L267.16 37.3604L267.163 37.3576L265.258 35.04ZM255.858 22.92L258.687 23.9185L258.692 23.9057L258.696 23.893L255.858 22.92ZM255.858 32L253.021 32.973L253.025 32.9857L253.029 32.9985L255.858 32ZM259.218 32L262.047 32.9985L262.052 32.9857L262.056 32.973L259.218 32ZM259.218 22.92L256.381 23.893L256.385 23.9057L256.389 23.9185L259.218 22.92ZM251.699 32.7353C250.699 31.9021 249.898 30.3779 249.898 27.44H243.898C243.898 31.4354 245.018 34.9779 247.858 37.3447L251.699 32.7353ZM249.898 27.44C249.898 24.4982 250.701 23.003 251.68 22.2004L247.877 17.5596C245.016 19.9037 243.898 23.4485 243.898 27.44H249.898ZM251.683 22.1976C252.958 21.1503 254.808 20.48 257.538 20.48V14.48C253.815 14.48 250.493 15.4097 247.874 17.5624L251.683 22.1976ZM257.538 20.48C260.271 20.48 262.098 21.1511 263.338 22.1847L267.179 17.5753C264.579 15.4089 261.259 14.48 257.538 14.48V20.48ZM263.373 22.2132C264.371 23.0201 265.178 24.5113 265.178 27.44H271.178C271.178 23.4354 270.039 19.8866 267.144 17.5468L263.373 22.2132ZM265.178 27.44C265.178 30.365 264.372 31.885 263.354 32.7224L267.163 37.3576C270.038 34.995 271.178 31.4484 271.178 27.44H265.178ZM263.357 32.7196C262.116 33.7363 260.282 34.4 257.538 34.4V40.4C261.248 40.4 264.561 39.4904 267.16 37.3604L263.357 32.7196ZM257.538 34.4C254.797 34.4 252.939 33.7372 251.664 32.7068L247.893 37.3732C250.511 39.4895 253.827 40.4 257.538 40.4V34.4ZM253.029 21.9215C252.526 23.3476 252.378 25.3004 252.378 27.44H258.378C258.378 25.3662 258.551 24.3058 258.687 23.9185L253.029 21.9215ZM252.378 27.44C252.378 29.5893 252.528 31.5372 253.021 32.973L258.696 31.027C258.549 30.5961 258.378 29.5041 258.378 27.44H252.378ZM253.029 32.9985C253.314 33.8047 253.798 34.6779 254.631 35.3517C255.504 36.0589 256.532 36.36 257.538 36.36V30.36C257.624 30.36 257.763 30.3726 257.932 30.4289C258.105 30.4866 258.268 30.5765 258.406 30.6883C258.678 30.9087 258.723 31.102 258.687 31.0015L253.029 32.9985ZM257.538 36.36C258.545 36.36 259.572 36.0589 260.446 35.3517C261.278 34.6779 261.763 33.8047 262.047 32.9985L256.389 31.0015C256.354 31.102 256.398 30.9087 256.671 30.6883C256.809 30.5765 256.972 30.4866 257.145 30.4289C257.314 30.3726 257.453 30.36 257.538 30.36V36.36ZM262.056 32.973C262.549 31.5372 262.698 29.5893 262.698 27.44H256.698C256.698 29.5041 256.528 30.5961 256.381 31.027L262.056 32.973ZM262.698 27.44C262.698 25.3004 262.551 23.3476 262.047 21.9215L256.389 23.9185C256.526 24.3058 256.698 25.3662 256.698 27.44H262.698ZM262.056 21.947C261.779 21.1383 261.305 20.2535 260.479 19.5653C259.606 18.838 258.567 18.52 257.538 18.52V24.52C257.444 24.52 257.296 24.5057 257.12 24.4451C256.939 24.3832 256.774 24.2885 256.638 24.1747C256.372 23.9531 256.338 23.7684 256.381 23.893L262.056 21.947ZM257.538 18.52C256.51 18.52 255.471 18.838 254.598 19.5653C253.772 20.2535 253.298 21.1383 253.021 21.947L258.696 23.893C258.739 23.7684 258.705 23.9531 258.439 24.1747C258.302 24.2885 258.137 24.3832 257.957 24.4451C257.781 24.5057 257.633 24.52 257.538 24.52V18.52ZM270.94 22.32L268.154 21.2058L268.145 21.23L268.135 21.2543L270.94 22.32ZM273.02 19.32L271.175 16.9541L271.173 16.9559L273.02 19.32ZM280.9 18.08L279.558 20.7633L279.611 20.7897L279.665 20.8141L280.9 18.08ZM282.62 19.24L280.277 21.1141L280.309 21.1538L280.342 21.1924L282.62 19.24ZM283.1 19.8L280.822 21.7524L286.411 28.2732L286.098 19.6905L283.1 19.8ZM282.78 11.04V8.04H279.668L279.782 11.1495L282.78 11.04ZM291.9 11.04L294.897 11.1647L295.027 8.04H291.9V11.04ZM290.82 37V40H293.697L293.817 37.1247L290.82 37ZM284.82 37L281.917 37.7591L282.503 40H284.82V37ZM284.14 34.4L287.042 33.6409L285.542 27.9067L281.809 32.5106L284.14 34.4ZM278.22 37.36V34.36H278.202L278.185 34.3602L278.22 37.36ZM272.46 34.76L270.189 36.7209L272.46 34.76ZM278.58 29.32L281.547 28.875V28.875L278.58 29.32ZM279.3 31L281.778 29.31V29.31L279.3 31ZM282.82 30.6L280.12 29.2912L280.112 29.3089L280.103 29.3267L282.82 30.6ZM273.18 27.08C273.18 25.5036 273.398 24.2958 273.744 23.3857L268.135 21.2543C267.468 23.0108 267.18 24.9764 267.18 27.08H273.18ZM273.725 23.4342C274.124 22.4375 274.546 21.9347 274.867 21.6841L271.173 16.9559C269.787 18.0386 268.822 19.5359 268.154 21.2058L273.725 23.4342ZM274.864 21.6859C275.933 20.8529 277.036 20.48 278.26 20.48V14.48C275.644 14.48 273.253 15.3338 271.175 16.9541L274.864 21.6859ZM278.26 20.48C278.789 20.48 279.205 20.5866 279.558 20.7633L282.241 15.3967C280.995 14.7734 279.651 14.48 278.26 14.48V20.48ZM279.665 20.8141C279.969 20.9513 280.161 21.0624 280.272 21.1372C280.389 21.2162 280.36 21.2173 280.277 21.1141L284.962 17.3659C284.198 16.4112 283.108 15.7857 282.134 15.3459L279.665 20.8141ZM280.342 21.1924L280.822 21.7524L285.377 17.8476L284.897 17.2876L280.342 21.1924ZM286.098 19.6905L285.778 10.9305L279.782 11.1495L280.102 19.9095L286.098 19.6905ZM282.78 14.04H291.9V8.04H282.78V14.04ZM288.902 10.9153L287.822 36.8753L293.817 37.1247L294.897 11.1647L288.902 10.9153ZM290.82 34H284.82V40H290.82V34ZM287.722 36.2409L287.042 33.6409L281.237 35.1591L281.917 37.7591L287.722 36.2409ZM281.809 32.5106C280.725 33.8477 279.58 34.36 278.22 34.36V40.36C281.553 40.36 284.354 38.8989 286.47 36.2894L281.809 32.5106ZM278.185 34.3602C276.751 34.3767 275.674 33.892 274.73 32.7991L270.189 36.7209C272.285 39.148 275.048 40.3967 278.254 40.3598L278.185 34.3602ZM274.73 32.7991C273.852 31.7824 273.18 30.0345 273.18 27.08H267.18C267.18 30.8455 268.027 34.2176 270.189 36.7209L274.73 32.7991ZM280.82 19.84C279.891 19.84 278.947 20.0854 278.104 20.6569C277.282 21.2139 276.727 21.9644 276.357 22.7163C275.659 24.1368 275.46 25.8905 275.46 27.64H281.46C281.46 26.955 281.502 26.4238 281.568 26.0252C281.634 25.6182 281.713 25.4224 281.742 25.3637C281.766 25.3156 281.702 25.4661 281.471 25.6231C281.218 25.7946 280.962 25.84 280.82 25.84V19.84ZM275.46 27.64C275.46 28.3628 275.509 29.0722 275.613 29.765L281.547 28.875C281.49 28.5011 281.46 28.0906 281.46 27.64H275.46ZM275.613 29.765C275.778 30.8629 276.244 31.8435 276.821 32.69L281.778 29.31C281.556 28.9832 281.542 28.8438 281.547 28.875L275.613 29.765ZM276.821 32.69C277.836 34.1787 279.398 34.88 281.06 34.88V28.88C281.056 28.88 281.19 28.8809 281.381 28.9767C281.583 29.0775 281.715 29.2166 281.778 29.31L276.821 32.69ZM281.06 34.88C282.036 34.88 283.003 34.5978 283.844 33.9862C284.652 33.3991 285.184 32.6252 285.536 31.8733L280.103 29.3267C280.056 29.4282 280.095 29.2943 280.315 29.1338C280.427 29.0525 280.56 28.9834 280.707 28.9376C280.851 28.8923 280.974 28.88 281.06 28.88V34.88ZM285.519 31.9088C286.166 30.575 286.46 29.1328 286.46 27.64H280.46C280.46 28.3339 280.327 28.865 280.12 29.2912L285.519 31.9088ZM286.46 27.64C286.46 25.8633 286.232 24.056 285.428 22.5942C285.001 21.8181 284.386 21.0932 283.53 20.5744C282.668 20.0521 281.729 19.84 280.82 19.84V25.84C280.79 25.84 280.622 25.8279 280.42 25.7056C280.224 25.5868 280.158 25.4619 280.171 25.4858C280.193 25.5265 280.274 25.6982 280.344 26.081C280.413 26.4574 280.46 26.9689 280.46 27.64H286.46ZM303.806 18.6L304.738 21.4515L304.771 21.4406L304.804 21.429L303.806 18.6ZM304.486 18.36L307.478 18.5783L307.812 14.0048L303.487 15.531L304.486 18.36ZM303.126 37V40H305.915L306.118 37.2183L303.126 37ZM295.566 37L292.573 37.2055L292.765 40H295.566V37ZM294.286 18.36L295.409 15.5779L290.965 13.7848L291.293 18.5655L294.286 18.36ZM296.006 16.32L294.021 18.5695H294.021L296.006 16.32ZM295.966 10.08L297.946 12.3335L297.951 12.3295L295.966 10.08ZM302.726 10.08L304.711 7.83049V7.83048L302.726 10.08ZM302.726 16.32L304.711 18.5695V18.5695L302.726 16.32ZM304.804 21.429L305.484 21.189L303.487 15.531L302.807 15.771L304.804 21.429ZM301.494 18.1417L300.134 36.7817L306.118 37.2183L307.478 18.5783L301.494 18.1417ZM303.126 34H295.566V40H303.126V34ZM298.559 36.7945L297.279 18.1545L291.293 18.5655L292.573 37.2055L298.559 36.7945ZM293.163 21.142C295.055 21.9053 297.051 22.28 299.126 22.28V16.28C297.788 16.28 296.557 16.0414 295.409 15.5779L293.163 21.142ZM299.126 22.28C301.118 22.28 303 22.0197 304.738 21.4515L302.874 15.7485C301.838 16.087 300.6 16.28 299.126 16.28V22.28ZM299.366 14.52C298.683 14.52 298.292 14.3359 297.991 14.0705L294.021 18.5695C295.534 19.9041 297.383 20.52 299.366 20.52V14.52ZM297.991 14.0705C297.771 13.8767 297.646 13.6764 297.646 13.2H291.646C291.646 15.2836 292.427 17.1633 294.021 18.5695L297.991 14.0705ZM297.646 13.2C297.646 12.6449 297.794 12.4677 297.946 12.3335L293.986 7.8265C292.378 9.23896 291.646 11.1417 291.646 13.2H297.646ZM297.951 12.3295C298.252 12.0641 298.643 11.88 299.326 11.88V5.88C297.343 5.88 295.494 6.4959 293.981 7.83048L297.951 12.3295ZM299.326 11.88C300.053 11.88 300.452 12.0741 300.741 12.3295L304.711 7.83048C303.187 6.48591 301.319 5.88 299.326 5.88V11.88ZM300.741 12.3295C300.961 12.5233 301.086 12.7236 301.086 13.2H307.086C307.086 11.1164 306.305 9.23673 304.711 7.83049L300.741 12.3295ZM301.086 13.2C301.086 13.6764 300.961 13.8767 300.741 14.0705L304.711 18.5695C306.305 17.1633 307.086 15.2836 307.086 13.2H301.086ZM300.741 14.0705C300.44 14.3359 300.049 14.52 299.366 14.52V20.52C301.349 20.52 303.198 19.9041 304.711 18.5695L300.741 14.0705Z" fill="black"/>
<path d="M318.322 28.1474L336.631 9.83821L346.162 19.3689L327.853 37.6781L327.852 37.6783C327.327 38.2042 326.614 38.4998 325.87 38.5C325.87 38.5 325.87 38.5 325.87 38.5H320.304C319.561 38.5 318.847 38.2045 318.321 37.6786C317.795 37.1527 317.5 36.4394 317.5 35.6956V30.1303C317.5 30.1302 317.5 30.1301 317.5 30.13C317.5 29.3864 317.796 28.6733 318.322 28.1476L318.322 28.1474ZM344.148 2.32109C344.148 2.32104 344.148 2.32099 344.148 2.32093C344.674 1.79529 345.387 1.5 346.131 1.5C346.875 1.5 347.588 1.79535 348.114 2.32109L353.679 7.88638C354.205 8.41229 354.5 9.12547 354.5 9.8691C354.5 10.6127 354.205 11.3259 353.679 11.8518L351.326 14.2044L341.796 4.67367L344.148 2.32109Z" fill="#AA0C0C" stroke="black" stroke-width="3"/>
<path d="M14.8 12.76L21.88 26.88L20.76 12.76H30L28 37H16.28L9.56 23.8L8.24 37H3L1 12.76H14.8ZM39.0556 37.4C37.0023 37.4 35.309 36.8 33.9756 35.6C32.669 34.4 32.0156 32.7067 32.0156 30.52C32.0156 28.3067 32.7623 26.7067 34.2556 25.72C35.749 24.7067 37.549 24.2 39.6556 24.2C41.7623 24.2 43.589 24.5333 45.1356 25.2C44.789 22.9867 43.389 21.88 40.9356 21.88C39.8156 21.88 38.429 22.1067 36.7756 22.56L35.7756 18.96C38.1756 17.9733 40.6156 17.48 43.0956 17.48C50.2423 17.48 53.8156 20.52 53.8156 26.6C53.8156 28.68 53.5756 31.56 53.0956 35.24L52.8956 37H46.2956L46.0556 34.8C44.2423 36.5333 41.909 37.4 39.0556 37.4ZM42.6556 32.44C43.8556 32.44 44.8823 32.1067 45.7356 31.44L45.4956 28.8C44.829 28.3467 44.0823 28.12 43.2556 28.12C42.4556 28.12 41.789 28.32 41.2556 28.72C40.749 29.12 40.4956 29.6133 40.4956 30.2C40.4956 30.7867 40.6956 31.3067 41.0956 31.76C41.4956 32.2133 42.0156 32.44 42.6556 32.44ZM74.56 34.2C72.56 36.3333 69.88 37.4 66.52 37.4C63.1867 37.4 60.6 36.5067 58.76 34.72C56.92 32.9067 56 30.36 56 27.08C56 23.8 56.9867 21.3867 58.96 19.84C60.9333 18.2667 63.4 17.48 66.36 17.48C67.6133 17.48 68.8133 17.6 69.96 17.84C71.1333 18.08 71.9867 18.3333 72.52 18.6L73.32 18.96L72.44 23.08C71.3467 22.76 70.2133 22.6 69.04 22.6C67.8933 22.6 66.84 22.9733 65.88 23.72C64.9467 24.44 64.48 25.56 64.48 27.08C64.48 30.4933 65.8 32.2 68.44 32.2C69.1333 32.2 69.8 32.12 70.44 31.96C71.08 31.7733 71.5467 31.5867 71.84 31.4L72.28 31.16L74.56 34.2ZM84.6503 20.64C86.0636 18.5333 87.8103 17.48 89.8903 17.48C90.877 17.48 91.7836 17.72 92.6103 18.2L91.6503 24.76C90.5836 24.0133 89.3836 23.64 88.0503 23.64C86.7703 23.64 85.9036 24.1733 85.4503 25.24C85.1836 25.9067 85.0103 26.5467 84.9303 27.16L84.1703 37H76.9703L75.7703 18.04H83.6503L84.6503 20.64ZM104.417 29.88C104.391 31.4267 104.937 32.2 106.057 32.2C106.377 32.2 106.764 32.0533 107.217 31.76L108.057 35.64C107.897 35.7733 107.671 35.9467 107.377 36.16C107.111 36.3467 106.511 36.6 105.577 36.92C104.671 37.24 103.724 37.4 102.737 37.4C100.924 37.4 99.4439 36.7867 98.2972 35.56C97.1505 34.3067 96.5372 32.72 96.4572 30.8L96.0972 23.24H93.0172L93.4972 18.04H95.8972L95.7372 14.12L105.217 12.2L104.937 18.04H107.257L107.737 23.24H104.697L104.417 29.88ZM117.298 37.4C115.244 37.4 113.551 36.8 112.218 35.6C110.911 34.4 110.258 32.7067 110.258 30.52C110.258 28.3067 111.004 26.7067 112.498 25.72C113.991 24.7067 115.791 24.2 117.898 24.2C120.004 24.2 121.831 24.5333 123.378 25.2C123.031 22.9867 121.631 21.88 119.178 21.88C118.058 21.88 116.671 22.1067 115.018 22.56L114.018 18.96C116.418 17.9733 118.858 17.48 121.338 17.48C128.484 17.48 132.058 20.52 132.058 26.6C132.058 28.68 131.818 31.56 131.338 35.24L131.138 37H124.538L124.298 34.8C122.484 36.5333 120.151 37.4 117.298 37.4ZM120.898 32.44C122.098 32.44 123.124 32.1067 123.978 31.44L123.738 28.8C123.071 28.3467 122.324 28.12 121.498 28.12C120.698 28.12 120.031 28.32 119.498 28.72C118.991 29.12 118.738 29.6133 118.738 30.2C118.738 30.7867 118.938 31.3067 119.338 31.76C119.738 32.2133 120.258 32.44 120.898 32.44ZM135.122 40.84C135.549 40.3867 135.829 39.9333 135.962 39.48C136.122 39.0267 136.202 38.6 136.202 38.2C136.202 37.8267 135.816 31.2133 135.042 18.36C136.562 18.9733 138.256 19.28 140.122 19.28C141.696 19.28 143.189 19.0533 144.602 18.6L145.242 18.36L143.882 37.16C143.722 39.3733 143.002 41.1333 141.722 42.44C140.469 43.7467 138.629 44.4 136.202 44.4L133.242 42.12L133.762 41.88C134.242 41.64 134.696 41.2933 135.122 40.84ZM140.122 17.52C138.789 17.52 137.669 17.12 136.762 16.32C135.856 15.52 135.402 14.48 135.402 13.2C135.402 11.8933 135.842 10.8533 136.722 10.08C137.629 9.28 138.749 8.88 140.082 8.88C141.442 8.88 142.576 9.28 143.482 10.08C144.389 10.88 144.842 11.92 144.842 13.2C144.842 14.48 144.389 15.52 143.482 16.32C142.576 17.12 141.456 17.52 140.122 17.52ZM183.968 24.88C185.195 24.88 186.168 24.5067 186.888 23.76C187.608 23.0133 187.968 22.1067 187.968 21.04C187.968 19.9467 187.622 19.1333 186.928 18.6C186.262 18.04 185.395 17.76 184.328 17.76H182.728L182.048 24.88H183.968ZM186.488 30H181.528L180.848 37H173.048L170.648 12.76H188.488C191.288 12.76 193.555 13.48 195.288 14.92C197.048 16.3333 197.928 18.3733 197.928 21.04C197.928 22.6667 197.595 24.08 196.928 25.28C196.288 26.48 195.408 27.4133 194.288 28.08C192.128 29.36 189.528 30 186.488 30ZM202.005 35.04C200.085 33.44 199.125 30.9067 199.125 27.44C199.125 23.9733 200.085 21.4533 202.005 19.88C203.952 18.28 206.538 17.48 209.765 17.48C212.992 17.48 215.565 18.28 217.485 19.88C219.432 21.4533 220.405 23.9733 220.405 27.44C220.405 30.9067 219.432 33.44 217.485 35.04C215.565 36.6133 212.992 37.4 209.765 37.4C206.538 37.4 203.952 36.6133 202.005 35.04ZM208.085 22.92C207.765 23.8267 207.605 25.3333 207.605 27.44C207.605 29.5467 207.765 31.0667 208.085 32C208.405 32.9067 208.965 33.36 209.765 33.36C210.565 33.36 211.125 32.9067 211.445 32C211.765 31.0667 211.925 29.5467 211.925 27.44C211.925 25.3333 211.765 23.8267 211.445 22.92C211.125 21.9867 210.565 21.52 209.765 21.52C208.965 21.52 208.405 21.9867 208.085 22.92ZM234.046 44.4C232.74 44.4 231.46 44.2 230.206 43.8C228.953 43.4267 228.033 43.0533 227.446 42.68L226.566 42.08L228.326 38.48C229.473 39.04 230.54 39.32 231.526 39.32C233.34 39.32 234.673 38.7467 235.526 37.6C236.38 36.4533 236.806 35.1333 236.806 33.64C236.806 33.3733 236.793 33.1067 236.766 32.84C235.513 35.3467 233.46 36.6 230.606 36.6C228.1 36.6 226.1 35.84 224.606 34.32C223.14 32.8 222.406 30.3867 222.406 27.08C222.406 25.24 222.66 23.6533 223.166 22.32C223.7 20.9867 224.393 19.9867 225.246 19.32C226.82 18.0933 228.566 17.48 230.486 17.48C231.82 17.48 232.953 17.8 233.886 18.44C234.66 19 235.313 19.6133 235.846 20.28L235.606 18.04H244.886L244.206 33.6C243.86 40.8 240.473 44.4 234.046 44.4ZM233.046 22.88C231.473 22.88 230.686 24.3467 230.686 27.28C230.686 27.8133 230.726 28.3333 230.806 28.84C230.913 29.3467 231.166 29.8533 231.566 30.36C231.993 30.8667 232.593 31.12 233.366 31.12C234.14 31.12 234.713 30.7467 235.086 30C235.486 29.2533 235.686 28.3467 235.686 27.28C235.686 24.3467 234.806 22.88 233.046 22.88ZM249.778 35.04C247.858 33.44 246.898 30.9067 246.898 27.44C246.898 23.9733 247.858 21.4533 249.778 19.88C251.725 18.28 254.312 17.48 257.538 17.48C260.765 17.48 263.338 18.28 265.258 19.88C267.205 21.4533 268.178 23.9733 268.178 27.44C268.178 30.9067 267.205 33.44 265.258 35.04C263.338 36.6133 260.765 37.4 257.538 37.4C254.312 37.4 251.725 36.6133 249.778 35.04ZM255.858 22.92C255.538 23.8267 255.378 25.3333 255.378 27.44C255.378 29.5467 255.538 31.0667 255.858 32C256.178 32.9067 256.738 33.36 257.538 33.36C258.338 33.36 258.898 32.9067 259.218 32C259.538 31.0667 259.698 29.5467 259.698 27.44C259.698 25.3333 259.538 23.8267 259.218 22.92C258.898 21.9867 258.338 21.52 257.538 21.52C256.738 21.52 256.178 21.9867 255.858 22.92ZM270.18 27.08C270.18 25.24 270.433 23.6533 270.94 22.32C271.473 20.9867 272.166 19.9867 273.02 19.32C274.593 18.0933 276.34 17.48 278.26 17.48C279.22 17.48 280.1 17.68 280.9 18.08C281.726 18.4533 282.3 18.84 282.62 19.24L283.1 19.8L282.78 11.04H291.9L290.82 37H284.82L284.14 34.4C282.54 36.3733 280.566 37.36 278.22 37.36C275.9 37.3867 273.98 36.52 272.46 34.76C270.94 33 270.18 30.44 270.18 27.08ZM280.82 22.84C279.246 22.84 278.46 24.44 278.46 27.64C278.46 28.2267 278.5 28.7867 278.58 29.32C278.66 29.8533 278.9 30.4133 279.3 31C279.7 31.5867 280.286 31.88 281.06 31.88C281.833 31.88 282.42 31.4533 282.82 30.6C283.246 29.72 283.46 28.7333 283.46 27.64C283.46 24.44 282.58 22.84 280.82 22.84ZM303.806 18.6L304.486 18.36L303.126 37H295.566L294.286 18.36C295.806 18.9733 297.419 19.28 299.126 19.28C300.859 19.28 302.419 19.0533 303.806 18.6ZM299.366 17.52C298.033 17.52 296.913 17.12 296.006 16.32C295.099 15.52 294.646 14.48 294.646 13.2C294.646 11.8933 295.086 10.8533 295.966 10.08C296.873 9.28 297.993 8.88 299.326 8.88C300.686 8.88 301.819 9.28 302.726 10.08C303.633 10.88 304.086 11.92 304.086 13.2C304.086 14.48 303.633 15.52 302.726 16.32C301.819 17.12 300.699 17.52 299.366 17.52Z" fill="white"/>
<path d="M161.605 35.4C159.899 36.7333 157.739 37.4 155.125 37.4C152.539 37.4 150.445 36.6933 148.845 35.28C147.245 33.8667 146.445 32.2 146.445 30.28C146.445 27.9333 147.592 26 149.885 24.48C149.032 22.9867 148.605 21.68 148.605 20.56C148.605 18.3733 149.525 16.7333 151.365 15.64C153.232 14.52 155.432 13.96 157.965 13.96C160.499 13.96 162.685 14.36 164.525 15.16L164.125 19.36C163.379 19.0133 162.539 18.84 161.605 18.84C160.672 18.84 159.885 19.0933 159.245 19.6C158.605 20.08 158.285 20.7867 158.285 21.72C158.285 23.56 159.232 25.6 161.125 27.84C161.339 26.8267 161.445 25.8667 161.445 24.96C161.445 24.0533 161.405 23.24 161.325 22.52H166.885L167.645 26.76H165.685C165.525 28.4133 165.192 29.9067 164.685 31.24C166.205 32.44 167.859 33.4933 169.645 34.4L168.045 38.08C166.205 37.7333 164.059 36.84 161.605 35.4ZM152.445 30.24C152.445 30.88 152.712 31.4533 153.245 31.96C153.779 32.44 154.445 32.68 155.245 32.68C156.072 32.68 156.765 32.6 157.325 32.44C155.859 31.32 154.432 30.04 153.045 28.6C152.645 29.0267 152.445 29.5733 152.445 30.24Z" fill="url(#paint0_linear_17_225)"/>
<defs>
<linearGradient id="paint0_linear_17_225" x1="153" y1="4" x2="153" y2="46" gradientUnits="userSpaceOnUse">
<stop stop-color="#AA0C0C"/>
<stop offset="1" stop-color="#880909"/>
</linearGradient>
</defs>
</svg>
